<svg width="64" height="64" viewBox="0 0 64 64" fill="none" xmlns="http://www.w3.org/2000/svg">
<path d="M32.1177 28.1761C32.1177 28.8142 31.7206 29.3362 31.2353 29.3362H24.313C23.8277 29.3362 23.4307 28.8142 23.4307 28.1761V26.7143C23.4307 26.0763 23.8277 25.5542 24.313 25.5542H31.2353C31.7206 25.5542 32.1177 26.0763 32.1177 26.7143V28.1761Z" stroke="#8731D2" stroke-width="2" stroke-miterlimit="10" stroke-linecap="round" stroke-linejoin="round"/>
<path d="M32.1177 37.8079C32.1177 38.446 31.7206 38.968 31.2353 38.968H24.313C23.8277 38.968 23.4307 38.446 23.4307 37.8079V36.3462C23.4307 35.7081 23.8277 35.186 24.313 35.186H31.2353C31.7206 35.186 32.1177 35.7081 32.1177 36.3462V37.8079Z" stroke="#8731D2" stroke-width="2" stroke-miterlimit="10" stroke-linecap="round" stroke-linejoin="round"/>
<path d="M24.6259 19.3135H12.3564V44.6863H24.6259V19.3135Z" fill="white" stroke="#8731D2" stroke-width="4" stroke-miterlimit="10" stroke-linecap="round" stroke-linejoin="round"/>
<path d="M38.967 44.686L51.4805 44.686L51.4805 19.3133L38.967 19.3133L38.967 44.686Z" fill="white" stroke="#8731D2" stroke-width="4" stroke-miterlimit="10" stroke-linecap="round" stroke-linejoin="round"/>
<path d="M3.62524 35.061L12.3564 35.061L12.3564 28.9383L3.62524 28.9383L3.62524 35.061Z" fill="white" stroke="#8731D2" stroke-width="4" stroke-miterlimit="10" stroke-linecap="round" stroke-linejoin="round"/>
<path d="M51.4807 35.061L60.2119 35.061L60.2119 28.9383L51.4807 28.9383L51.4807 35.061Z" fill="white" stroke="#8731D2" stroke-width="4" stroke-miterlimit="10" stroke-linecap="round" stroke-linejoin="round"/>
</svg>
