<svg width="96" height="96" viewBox="0 0 96 96" fill="none" xmlns="http://www.w3.org/2000/svg">
<g clip-path="url(#clip0)">
<path d="M47.4091 24.8057C34.8721 24.8057 35.655 30.0897 35.655 30.0897L35.669 35.5639H47.6328V37.2075H30.917C30.917 37.2075 22.8945 36.3233 22.8945 48.6177C22.8945 60.9123 29.8967 60.4763 29.8967 60.4763H34.0757V54.7712C34.0757 54.7712 33.8504 47.9657 40.966 47.9657H52.832C52.832 47.9657 59.4987 48.0705 59.4987 41.7037C59.4987 35.3369 59.4987 31.1764 59.4987 31.1764C59.4987 31.1764 60.5109 24.8057 47.4091 24.8057ZM40.8123 28.4868C42.0026 28.4868 42.9646 29.4219 42.9646 30.5787C42.9646 31.7356 42.0026 32.6706 40.8123 32.6706C39.622 32.6706 38.6599 31.7356 38.6599 30.5787C38.6599 29.4219 39.622 28.4868 40.8123 28.4868Z" fill="#300D4F"/>
<path d="M47.7648 72.5538C60.3018 72.5538 59.5189 67.2697 59.5189 67.2697L59.5049 61.7954H47.5411V60.1518H64.2569C64.2569 60.1518 72.2794 61.0361 72.2794 48.7416C72.2795 36.4471 65.2773 36.883 65.2773 36.883H61.0983V42.5883C61.0983 42.5883 61.3236 49.3936 54.2079 49.3936C47.0923 49.3936 42.342 49.3936 42.342 49.3936C42.342 49.3936 35.6752 49.2889 35.6752 55.6557V66.183C35.6752 66.183 34.6631 72.5538 47.7648 72.5538ZM54.3617 68.8726C53.1714 68.8726 52.2094 67.9375 52.2094 66.7807C52.2094 65.6238 53.1714 64.6888 54.3617 64.6888C55.552 64.6888 56.5141 65.6238 56.5141 66.7807C56.5141 67.9375 55.552 68.8726 54.3617 68.8726Z" fill="#300D4F"/>
</g>
<defs>
<clipPath id="clip0">
<rect x="22.4877" y="23.6713" width="50.8932" height="49.7096" fill="white"/>
</clipPath>
</defs>
</svg>
