<svg width="96" height="96" viewBox="0 0 96 96" fill="none" xmlns="http://www.w3.org/2000/svg">
<g clip-path="url(#clip0)">
<path d="M16.7857 43.1714C16.6444 43.1714 16.6091 43.1029 16.6797 43.0003L17.4218 42.0763C17.4925 41.9736 17.6692 41.9051 17.8105 41.9051H30.4256C30.567 41.9051 30.6023 42.0078 30.5316 42.1105L29.9309 43.0003C29.8603 43.1029 29.6836 43.2056 29.5776 43.2056L16.7857 43.1714ZM11.4499 46.3199C11.3086 46.3199 11.2733 46.2514 11.3439 46.1488L12.086 45.2248C12.1567 45.1221 12.3334 45.0537 12.4747 45.0537H28.5881C28.7295 45.0537 28.8001 45.1563 28.7649 45.2589L28.4822 46.0803C28.4468 46.2172 28.3054 46.2857 28.1641 46.2857L11.4499 46.3199ZM20.0014 49.4683C19.86 49.4683 19.8247 49.3657 19.8954 49.263L20.3901 48.4075C20.4608 48.3048 20.6021 48.2021 20.7434 48.2021H27.8107C27.9521 48.2021 28.0228 48.3048 28.0228 48.4417L27.9521 49.263C27.9521 49.4 27.8107 49.5026 27.7047 49.5026L20.0014 49.4683ZM56.6807 42.5554C54.4545 43.1029 52.935 43.5136 50.7442 44.0612C50.2141 44.1981 50.1787 44.2323 49.7194 43.7189C49.1893 43.1372 48.8006 42.7607 48.0585 42.4185C45.8323 41.3576 43.6769 41.6656 41.6627 42.9318C39.2598 44.4376 38.023 46.6621 38.0583 49.4341C38.0937 52.1719 40.0372 54.4306 42.8287 54.8071C45.2316 55.1151 47.2458 54.2937 48.836 52.5484C49.154 52.1719 49.4367 51.7613 49.79 51.2822H42.9701C42.228 51.2822 42.0514 50.8373 42.2987 50.2555C42.7581 49.1946 43.6061 47.415 44.1009 46.5252C44.2068 46.3199 44.4542 45.9777 44.9843 45.9777H57.8468C57.7761 46.9016 57.7761 47.8256 57.6347 48.7497C57.246 51.2137 56.292 53.4724 54.7372 55.4573C52.1929 58.7085 48.8713 60.7276 44.6663 61.2752C41.2032 61.7201 37.9876 61.0699 35.1607 59.0165C32.5458 57.1001 31.0617 54.5675 30.673 51.4191C30.2136 47.6888 31.3444 44.335 33.6766 41.3918C36.1855 38.2091 39.5071 36.19 43.5708 35.4713C46.8925 34.8895 50.0727 35.2659 52.935 37.1482C54.8078 38.346 56.1506 39.9887 57.034 41.9736C57.246 42.2816 57.1047 42.4527 56.6807 42.5554Z" fill="#300D4F"/>
<path d="M68.3787 61.4796C65.1631 61.4111 62.2301 60.5213 59.7566 58.4679C57.6717 56.7226 56.3643 54.4981 55.9403 51.8629C55.3042 47.9959 56.3996 44.5736 58.8025 41.5277C61.3821 38.2423 64.4917 36.5312 68.6967 35.8125C72.301 35.1965 75.6933 35.5387 78.7676 37.5579C81.5592 39.4059 83.2907 41.9042 83.7501 45.1895C84.3508 49.8096 82.9726 53.5741 79.6864 56.7911C77.3542 59.084 74.4919 60.5213 71.2056 61.1716C70.2516 61.3427 69.2975 61.3768 68.3787 61.4796ZM76.7888 47.6536C76.7535 47.2086 76.7535 46.8665 76.6828 46.5243C76.0467 43.1362 72.8311 41.2197 69.4741 41.9726C66.1879 42.6913 64.0677 44.7104 63.2903 47.9274C62.6542 50.5967 63.997 53.3004 66.5412 54.3955C68.4847 55.2168 70.4282 55.1141 72.301 54.1901C75.0926 52.787 76.6121 50.5967 76.7888 47.6536Z" fill="#300D4F"/>
</g>
<defs>
<clipPath id="clip0">
<rect x="11.3086" y="34.2405" width="73.3808" height="27.5178" fill="white"/>
</clipPath>
</defs>
</svg>
