<svg width="64" height="64" viewBox="0 0 64 64" fill="none" xmlns="http://www.w3.org/2000/svg">
<path d="M9.02441 12.7146L19.2744 12.7146L39.7744 51.2856L50.0244 51.2856" stroke="#8731D2" stroke-width="4"/>
<path d="M47.9036 44.2148L45.0752 47.0433L52.1463 54.1143L54.9747 51.2859L47.9036 44.2148Z" fill="#8731D2"/>
<path d="M45.0753 55.5286L47.9037 58.357L54.9747 51.2859L52.1463 48.4575L45.0753 55.5286Z" fill="#8731D2"/>
<mask id="path-3-outside-1" maskUnits="userSpaceOnUse" x="6.02441" y="0.643555" width="54" height="56" fill="black">
<rect fill="white" x="6.02441" y="0.643555" width="54" height="56"/>
<path fill-rule="evenodd" clip-rule="evenodd" d="M47.9032 5.64355L45.0748 8.47198L47.3174 10.7146H38.5725L18.0725 49.2856H9.02441V53.2856H20.4764L40.9764 14.7146H47.3174L45.0747 16.9573L47.9031 19.7857L52.1458 15.543L54.9742 12.7146L52.1458 9.88621L47.9032 5.64355Z"/>
</mask>
<path fill-rule="evenodd" clip-rule="evenodd" d="M47.9032 5.64355L45.0748 8.47198L47.3174 10.7146H38.5725L18.0725 49.2856H9.02441V53.2856H20.4764L40.9764 14.7146H47.3174L45.0747 16.9573L47.9031 19.7857L52.1458 15.543L54.9742 12.7146L52.1458 9.88621L47.9032 5.64355Z" fill="#8731D2"/>
<path d="M45.0748 8.47198L42.9534 6.35066L40.8321 8.47198L42.9534 10.5933L45.0748 8.47198ZM47.9032 5.64355L50.0245 3.52225L47.9032 1.4009L45.7819 3.52223L47.9032 5.64355ZM47.3174 10.7146V13.7146H54.56L49.4387 8.59328L47.3174 10.7146ZM38.5725 10.7146V7.7146H36.7695L35.9234 9.30664L38.5725 10.7146ZM18.0725 49.2856V52.2856H19.8754L20.7215 50.6936L18.0725 49.2856ZM9.02441 49.2856V46.2856H6.02441V49.2856H9.02441ZM9.02441 53.2856H6.02441V56.2856H9.02441V53.2856ZM20.4764 53.2856V56.2856H22.2793L23.1255 54.6936L20.4764 53.2856ZM40.9764 14.7146V11.7146H39.1734L38.3273 13.3066L40.9764 14.7146ZM47.3174 14.7146L49.4387 16.8359L54.56 11.7146H47.3174V14.7146ZM45.0747 16.9573L42.9534 14.836L40.8321 16.9573L42.9534 19.0786L45.0747 16.9573ZM47.9031 19.7857L45.7818 21.907L47.9031 24.0283L50.0244 21.907L47.9031 19.7857ZM52.1458 15.543L54.2671 17.6644L54.2672 17.6644L52.1458 15.543ZM54.9742 12.7146L57.0955 14.8359L59.2168 12.7146L57.0955 10.5933L54.9742 12.7146ZM52.1458 9.88621L50.0244 12.0075L50.0245 12.0075L52.1458 9.88621ZM47.1961 10.5933L50.0245 7.76487L45.7819 3.52223L42.9534 6.35066L47.1961 10.5933ZM49.4387 8.59328L47.1961 6.35066L42.9534 10.5933L45.1961 12.8359L49.4387 8.59328ZM38.5725 13.7146H47.3174V7.7146H38.5725V13.7146ZM20.7215 50.6936L41.2215 12.1226L35.9234 9.30664L15.4234 47.8777L20.7215 50.6936ZM9.02441 52.2856H18.0725V46.2856H9.02441V52.2856ZM12.0244 53.2856V49.2856H6.02441V53.2856H12.0244ZM20.4764 50.2856H9.02441V56.2856H20.4764V50.2856ZM38.3273 13.3066L17.8273 51.8777L23.1255 54.6936L43.6255 16.1226L38.3273 13.3066ZM47.3174 11.7146H40.9764V17.7146H47.3174V11.7146ZM47.196 19.0786L49.4387 16.8359L45.1961 12.5933L42.9534 14.836L47.196 19.0786ZM50.0245 17.6644L47.196 14.836L42.9534 19.0786L45.7818 21.907L50.0245 17.6644ZM50.0245 13.4217L45.7818 17.6644L50.0244 21.907L54.2671 17.6644L50.0245 13.4217ZM52.8529 10.5933L50.0245 13.4217L54.2672 17.6644L57.0955 14.8359L52.8529 10.5933ZM50.0245 12.0075L52.8529 14.836L57.0955 10.5933L54.2671 7.76489L50.0245 12.0075ZM45.7819 7.76486L50.0244 12.0075L54.2671 7.7649L50.0245 3.52225L45.7819 7.76486Z" fill="white" mask="url(#path-3-outside-1)"/>
</svg>
