<svg width="72" height="72" viewBox="0 0 72 72" fill="none" xmlns="http://www.w3.org/2000/svg">
<path d="M5 29.4464L11.698 25.5374L15.606 32.2364" stroke="#2AE9AA" stroke-width="3" stroke-linecap="round" stroke-linejoin="round"/>
<path d="M35.7753 50.7666V47.9316" stroke="#2AE9AA" stroke-width="2" stroke-linecap="round" stroke-linejoin="round"/>
<path d="M43.2299 48.7497L41.7969 46.3037" stroke="#2AE9AA" stroke-width="2" stroke-linecap="round" stroke-linejoin="round"/>
<path d="M48.5253 43.4542L46.0793 42.0212" stroke="#2AE9AA" stroke-width="2" stroke-linecap="round" stroke-linejoin="round"/>
<path d="M50.5424 35.9995H47.7074" stroke="#2AE9AA" stroke-width="2" stroke-linecap="round" stroke-linejoin="round"/>
<path d="M48.5253 28.5449L46.0793 29.9779" stroke="#2AE9AA" stroke-width="2" stroke-linecap="round" stroke-linejoin="round"/>
<path d="M43.2299 23.2495L41.7969 25.6955" stroke="#2AE9AA" stroke-width="2" stroke-linecap="round" stroke-linejoin="round"/>
<path d="M35.7753 21.2324V24.0674" stroke="#2AE9AA" stroke-width="2" stroke-linecap="round" stroke-linejoin="round"/>
<path d="M28.3208 23.2495L29.7538 25.6955" stroke="#2AE9AA" stroke-width="2" stroke-linecap="round" stroke-linejoin="round"/>
<path d="M23.0253 28.5449L25.4713 29.9779" stroke="#2AE9AA" stroke-width="2" stroke-linecap="round" stroke-linejoin="round"/>
<path d="M21.0083 35.9995H23.8433" stroke="#2AE9AA" stroke-width="2" stroke-linecap="round" stroke-linejoin="round"/>
<path d="M23.0253 43.4542L25.4713 42.0212" stroke="#2AE9AA" stroke-width="2" stroke-linecap="round" stroke-linejoin="round"/>
<path d="M28.3208 48.7497L29.7538 46.3037" stroke="#2AE9AA" stroke-width="2" stroke-linecap="round" stroke-linejoin="round"/>
<path d="M35.7753 50.7666V47.9316" stroke="#2AE9AA" stroke-width="2" stroke-linecap="round" stroke-linejoin="round"/>
<path d="M15.7124 19.461C16.2424 18.819 16.8024 18.203 17.3904 17.615C17.9784 17.026 18.5944 16.466 19.2364 15.937C19.8794 15.407 20.5464 14.907 21.2384 14.44C21.9304 13.973 22.6454 13.538 23.3824 13.138C24.1194 12.737 24.8774 12.372 25.6544 12.043C26.4324 11.714 27.2294 11.422 28.0444 11.169C28.8584 10.915 29.6894 10.701 30.5354 10.528C31.3814 10.355 32.2434 10.223 33.1174 10.134C33.9914 10.045 34.8784 10 35.7754 10C36.6724 10 37.5594 10.045 38.4334 10.134C39.3074 10.223 40.1694 10.355 41.0154 10.528C41.8614 10.701 42.6924 10.915 43.5064 11.169C44.3214 11.422 45.1184 11.714 45.8964 12.043C46.6734 12.372 47.4314 12.737 48.1684 13.138C48.9054 13.538 49.6204 13.973 50.3124 14.44C51.0044 14.907 51.6714 15.407 52.3144 15.937C52.9564 16.466 53.5724 17.026 54.1604 17.615C54.7484 18.203 55.3084 18.819 55.8384 19.461C56.3684 20.103 56.8674 20.771 57.3354 21.463C57.8024 22.154 58.2374 22.87 58.6374 23.607C59.0374 24.343 59.4034 25.102 59.7324 25.879C60.0614 26.657 60.3534 27.454 60.6064 28.268C60.8594 29.082 61.0744 29.914 61.2474 30.76C61.4204 31.606 61.5524 32.467 61.6414 33.341C61.7304 34.215 61.7754 35.102 61.7754 36C61.7754 36.897 61.7304 37.784 61.6414 38.658C61.5524 39.532 61.4204 40.393 61.2474 41.239C61.0744 42.086 60.8594 42.917 60.6064 43.731C60.3534 44.545 60.0614 45.342 59.7324 46.12C59.4034 46.898 59.0374 47.656 58.6374 48.393C58.2374 49.129 57.8024 49.845 57.3354 50.536C56.8674 51.228 56.3684 51.896 55.8384 52.538C55.3084 53.18 54.7484 53.796 54.1604 54.384C53.5724 54.973 52.9564 55.533 52.3144 56.063C51.6714 56.592 51.0044 57.092 50.3124 57.559C49.6204 58.026 48.9054 58.461 48.1684 58.861C47.4314 59.262 46.6734 59.628 45.8964 59.957C45.1184 60.285 44.3214 60.577 43.5064 60.831C42.6924 61.084 41.8614 61.298 41.0154 61.471C40.1694 61.645 39.3074 61.776 38.4334 61.865C37.5594 61.954 36.6724 62 35.7754 62C34.8784 62 33.9914 61.954 33.1174 61.865C32.2434 61.776 31.3814 61.645 30.5354 61.471C29.6894 61.298 28.8584 61.084 28.0444 60.831C27.2294 60.577 26.4324 60.285 25.6544 59.957C24.8774 59.628 24.1194 59.262 23.3824 58.861C22.6454 58.461 21.9304 58.026 21.2384 57.559C20.5464 57.092 19.8794 56.592 19.2364 56.063C18.5944 55.533 17.9784 54.973 17.3904 54.384C16.8024 53.796 16.2424 53.18 15.7124 52.538C15.1824 51.896 14.6834 51.228 14.2154 50.536C13.7484 49.845 13.3134 49.129 12.9134 48.393C12.5134 47.656 12.1474 46.898 11.8184 46.12C11.4894 45.342 11.1974 44.545 10.9444 43.731C10.6914 42.917 10.4764 42.086 10.3034 41.239C10.1304 40.393 9.99839 39.532 9.90939 38.658C9.82039 37.784 9.77539 36.897 9.77539 36C9.77539 35.102 9.82039 34.215 9.90939 33.341C9.99839 32.467 10.1304 31.606 10.3034 30.76C10.4764 29.914 10.6914 29.082 10.9444 28.268" stroke="#2AE9AA" stroke-width="3" stroke-linecap="round" stroke-linejoin="round"/>
</svg>
