<svg width="96" height="96" viewBox="0 0 96 96" fill="none" xmlns="http://www.w3.org/2000/svg">
<g clip-path="url(#clip0)">
<path d="M22.1958 61.168H26.5131V41.8745H22.1958V61.185V61.168ZM24.346 39.3224C25.6899 39.3224 26.7483 38.2335 26.7483 36.8724C26.7483 35.4773 25.6899 34.3884 24.346 34.3884C23.0021 34.3884 21.9606 35.4773 21.9606 36.8724C21.9606 38.2335 23.0189 39.3224 24.346 39.3224ZM40.8426 34.4395C33.5686 34.4395 28.9993 39.6797 28.9993 48.0504C28.9993 56.3871 33.5686 61.6103 40.8426 61.6103C48.1165 61.6103 52.669 56.4042 52.669 48.0334C52.669 39.6797 48.1165 34.4395 40.8426 34.4395ZM40.8426 38.4547C45.2943 38.4547 48.1333 42.1637 48.1333 48.0334C48.1333 53.8861 45.2775 57.5951 40.8426 57.5951C36.3909 57.5951 33.5686 53.8861 33.5686 48.0334C33.5686 42.1637 36.3909 38.4547 40.8426 38.4547ZM54.5001 53.767C54.6849 58.6159 58.4479 61.6103 64.1931 61.6103C70.2407 61.6103 74.0373 58.4798 74.0373 53.4778C74.0373 49.5646 71.887 47.3529 66.8137 46.1449L63.9579 45.4473C60.9005 44.6647 59.6238 43.6439 59.6238 41.8915C59.6238 39.7137 61.5389 38.2505 64.3443 38.2505C67.2001 38.2505 69.1656 39.7307 69.3672 42.1807H73.6173C73.5333 37.57 69.8879 34.4395 64.3779 34.4395C58.9518 34.4395 55.1049 37.604 55.1049 42.2658C55.1049 46.0088 57.2887 48.3397 61.8749 49.4626L65.117 50.2622C68.2584 51.0448 69.5352 52.1337 69.5352 54.0392C69.5352 56.217 67.4521 57.7823 64.4451 57.7823C61.3877 57.7823 59.0862 56.2 58.8174 53.784H54.5001V53.767Z" fill="#300D4F"/>
</g>
<defs>
<clipPath id="clip0">
<rect x="21.9606" y="34.3884" width="52.0767" height="27.2219" fill="white"/>
</clipPath>
</defs>
</svg>
