<svg width="96" height="96" viewBox="0 0 96 96" fill="none" xmlns="http://www.w3.org/2000/svg">
<g clip-path="url(#clip0)">
<path fill-rule="evenodd" clip-rule="evenodd" d="M71.6702 23.7363H24.3277V72.2624H71.6702V23.7363ZM54.6269 60.4645L51.8169 62.1325C52.4067 63.394 53.3644 64.4506 54.5658 65.1654C55.7012 65.8305 56.9718 66.2355 58.2849 66.3509C59.598 66.4663 60.9205 66.2893 62.1559 65.8327C63.4082 65.4081 64.4161 64.6195 65.0881 63.4064C65.6226 62.4207 65.7906 61.344 65.7447 60.2218C65.7408 59.4212 65.5595 58.6313 65.2137 57.908C64.868 57.1847 64.3663 56.5457 63.7441 56.0365C62.8278 55.2631 61.7588 54.7323 60.6898 54.2319L60.0026 53.9286C59.4833 53.686 58.9488 53.4434 58.4296 53.1704C58.0725 52.9907 57.7433 52.7609 57.4522 52.488C56.7039 51.7753 56.7039 49.9707 58.2158 49.5158C58.7696 49.3607 59.3596 49.3927 59.8931 49.6068C60.4266 49.8209 60.8734 50.205 61.1632 50.6986C61.269 50.8579 61.3708 51.0197 61.4686 51.1839L63.6678 49.7281L64.5688 49.1215L64.5535 49.076L64.5383 49.0305C64.1962 48.3433 63.7184 47.7314 63.1334 47.2312C62.5483 46.731 61.8679 46.3528 61.1327 46.119C59.7925 45.7107 58.3638 45.6844 57.0093 46.0431C55.8473 46.326 54.8174 46.9942 54.0898 47.9373C53.3622 48.8803 52.9806 50.0417 53.0081 51.2294C52.9521 52.2109 53.1568 53.1898 53.6017 54.0681C54.0466 54.9464 54.7162 55.6931 55.5432 56.2336C56.1999 56.6885 56.9177 57.0373 57.6202 57.3861L58.9183 57.9927L60.2927 58.6447C60.6134 58.8115 60.9341 59.0542 61.209 59.312C61.713 59.7972 61.8199 60.419 61.6824 61.0862C61.5297 61.8141 61.0105 62.2387 60.3538 62.4662C59.3707 62.8173 58.2899 62.7848 57.33 62.3752C56.4367 61.961 55.6988 61.2761 55.2225 60.419L55.085 60.2067L54.6269 60.4645ZM49.7247 46.028H45.6776V59.9034C45.6776 60.2673 45.6624 60.6313 45.6013 60.9801C45.5096 61.5715 45.2958 62.0871 44.7613 62.4055C43.9672 62.8604 42.6996 62.7088 42.0124 62.1022C41.6153 61.7231 41.3405 61.253 41.0656 60.7981C41.0407 60.7473 41.0152 60.6967 40.9892 60.6464L40.9281 60.5403L39.0955 61.6625L37.6447 62.5723C38.3014 64.0888 39.4315 65.1958 40.699 65.7568C42.5011 66.5302 44.3643 66.5757 46.2122 65.954C46.9592 65.7136 47.6354 65.2948 48.1812 64.7342C48.7271 64.1737 49.126 63.4886 49.3429 62.7391C49.6483 61.8293 49.7247 60.9042 49.7247 59.964V46.028Z" fill="#300D4F"/>
</g>
<defs>
<clipPath id="clip0">
<rect x="24.3277" y="23.7363" width="47.3425" height="48.526" fill="white"/>
</clipPath>
</defs>
</svg>
