<svg width="64" height="64" viewBox="0 0 64 64" fill="none" xmlns="http://www.w3.org/2000/svg">
<path d="M36.5908 42.4547H57.2499" stroke="#2AE9AA" stroke-width="3.13636" stroke-miterlimit="10" stroke-linecap="round" stroke-linejoin="round"/>
<path d="M52.659 50.8183H41.1817C38.6567 50.8183 36.5908 48.9364 36.5908 46.6364V29.9092C36.5908 27.6092 38.6567 25.7274 41.1817 25.7274H52.659C55.184 25.7274 57.2499 27.6092 57.2499 29.9092V46.6364C57.2499 48.9364 55.184 50.8183 52.659 50.8183Z" stroke="#2AE9AA" stroke-width="3.13636" stroke-miterlimit="10" stroke-linecap="round" stroke-linejoin="round"/>
<path d="M11.3408 36.1818V17.3636C11.3408 15.0636 13.4067 13.1818 15.9317 13.1818H48.0681C50.5931 13.1818 52.659 15.0636 52.659 17.3636" stroke="#2AE9AA" stroke-width="3.13636" stroke-miterlimit="10" stroke-linecap="round" stroke-linejoin="round"/>
<path d="M27.4091 38.2728H6.75V42.4546C6.75 44.7546 8.81591 46.6364 11.3409 46.6364H28.5568" stroke="#2AE9AA" stroke-width="3.13636" stroke-miterlimit="10" stroke-linecap="round" stroke-linejoin="round"/>
</svg>
