<svg width="72" height="72" viewBox="0 0 72 72" fill="none" xmlns="http://www.w3.org/2000/svg">
<path d="M60 7H21C20.4477 7 20 7.44771 20 8V56C20 56.5523 20.4477 57 21 57H60C60.5523 57 61 56.5523 61 56V8C61 7.44772 60.5523 7 60 7Z" fill="white" stroke="#300D4F" stroke-width="3" stroke-miterlimit="10" stroke-linecap="round" stroke-linejoin="round"/>
<path d="M51 15H12C11.4477 15 11 15.4477 11 16V65C11 65.5523 11.4477 66 12 66H51C51.5523 66 52 65.5523 52 65V16C52 15.4477 51.5523 15 51 15Z" fill="white" stroke="#300D4F" stroke-width="3" stroke-miterlimit="10" stroke-linecap="round" stroke-linejoin="round"/>
<path d="M19 25H43" stroke="#300D4F" stroke-width="3" stroke-linecap="round" stroke-linejoin="round"/>
<path d="M19 32H39" stroke="#300D4F" stroke-width="3" stroke-linecap="round" stroke-linejoin="round"/>
<path d="M19 39H44" stroke="#300D4F" stroke-width="3" stroke-linecap="round" stroke-linejoin="round"/>
<path d="M19 46H41" stroke="#300D4F" stroke-width="3" stroke-linecap="round" stroke-linejoin="round"/>
<path d="M19 54H33" stroke="#300D4F" stroke-width="3" stroke-linecap="round" stroke-linejoin="round"/>
</svg>
