<svg width="96" height="96" viewBox="0 0 96 96" fill="none" xmlns="http://www.w3.org/2000/svg">
<g clip-path="url(#clip0)">
<path d="M20.1675 38.3733H29.8834C32.7353 38.397 34.8017 39.2016 36.0827 40.7873C37.3636 42.3729 37.7867 44.5384 37.3516 47.2837C37.1824 48.538 36.8078 49.7686 36.2278 50.9757C35.6718 52.1826 34.8984 53.2713 33.9075 54.2415C32.6991 55.4722 31.4061 56.2532 30.0284 56.5846C28.6508 56.9159 27.2248 57.0816 25.7505 57.0816H21.4001L20.0225 63.8265H14.9832L20.1675 38.3733ZM24.4091 42.4203L22.2339 53.0701C22.3789 53.0937 22.5239 53.1056 22.669 53.1056H23.1765C25.4967 53.1292 27.4302 52.9044 28.977 52.4312C30.5238 51.9342 31.5631 50.2065 32.0949 47.2482C32.5298 44.7633 32.0949 43.3314 30.7898 42.9528C29.5088 42.5741 27.9015 42.3965 25.9681 42.4203C25.678 42.4439 25.4001 42.4558 25.1342 42.4558C24.8925 42.4558 24.6387 42.4558 24.3729 42.4558L24.4091 42.4203Z" fill="#300D4F"/>
<path d="M43.0951 31.5952H48.0982L46.6843 38.3757H51.1796C53.6449 38.423 55.4817 38.92 56.6902 39.8666C57.9228 40.8133 58.2853 42.612 57.7779 45.2626L55.3488 57.084H50.2733L52.5935 45.7951C52.8352 44.6118 52.7627 43.7716 52.3761 43.2745C51.9893 42.7777 51.1555 42.5291 49.8746 42.5291L45.8504 42.4936L42.8776 57.084H37.8747L43.0951 31.5952Z" fill="#300D4F"/>
<path d="M63.1515 38.3733H72.8674C75.7194 38.397 77.7858 39.2016 79.0668 40.7873C80.3477 42.3729 80.7707 44.5384 80.3356 47.2837C80.1664 48.538 79.7918 49.7686 79.2118 50.9757C78.6559 52.1826 77.8824 53.2713 76.8916 54.2415C75.6831 55.4722 74.39 56.2532 73.0125 56.5846C71.6349 56.9159 70.2089 57.0816 68.7346 57.0816H64.3842L63.0066 63.8265H57.9673L63.1515 38.3733ZM67.3932 42.4203L65.2179 53.0701C65.363 53.0937 65.508 53.1056 65.653 53.1056H66.1606C68.4808 53.1292 70.4142 52.9044 71.9611 52.4312C73.5079 51.9342 74.5472 50.2065 75.0789 47.2482C75.5139 44.7633 75.0789 43.3314 73.7738 42.9528C72.4929 42.5741 70.8856 42.3965 68.952 42.4203C68.662 42.4439 68.3841 42.4558 68.1183 42.4558C67.8766 42.4558 67.6228 42.4558 67.3569 42.4558L67.3932 42.4203Z" fill="#300D4F"/>
</g>
<defs>
<clipPath id="clip0">
<rect x="14.8639" y="31.4292" width="66.2794" height="33.1397" fill="white"/>
</clipPath>
</defs>
</svg>
