<svg width="64" height="64" viewBox="0 0 64 64" fill="none" xmlns="http://www.w3.org/2000/svg">
<path d="M41.0471 25.528C43.9265 20.5381 42.2154 14.1312 37.2181 11.2444C32.2207 8.35749 25.8213 10.076 22.942 15.0734C20.0627 20.0708 21.7737 26.4702 26.7711 29.357L18.9697 42.8567" stroke="#8731D2" stroke-width="4" stroke-miterlimit="10"/>
<path d="M18.6079 33.0654C12.8417 33.0654 8.15332 37.7538 8.15332 43.52C8.15332 49.2862 12.8417 53.9745 18.6079 53.9745C24.3741 53.9745 29.0624 49.2862 29.0624 43.52H44.6575" stroke="#8731D2" stroke-width="4" stroke-miterlimit="10"/>
<path d="M36.3365 48.7208C39.2159 53.7106 45.6228 55.4292 50.6201 52.5499C55.6175 49.6705 57.3285 43.2636 54.4492 38.2663C51.5699 33.2764 45.163 31.5579 40.1656 34.4372L32.3643 20.9375" stroke="#8731D2" stroke-width="4" stroke-miterlimit="10"/>
<path d="M31.994 25.573C34.908 25.573 37.2703 23.2108 37.2703 20.2968C37.2703 17.3828 34.908 15.0205 31.994 15.0205C29.08 15.0205 26.7178 17.3828 26.7178 20.2968C26.7178 23.2108 29.08 25.573 31.994 25.573Z" fill="#8731D2"/>
<path d="M18.5927 48.7889C21.5067 48.7889 23.8689 46.4266 23.8689 43.5126C23.8689 40.5986 21.5067 38.2363 18.5927 38.2363C15.6787 38.2363 13.3164 40.5986 13.3164 43.5126C13.3164 46.4266 15.6787 48.7889 18.5927 48.7889Z" fill="#8731D2"/>
<path d="M45.4032 48.7962C48.3172 48.7962 50.6795 46.4339 50.6795 43.5199C50.6795 40.6059 48.3172 38.2437 45.4032 38.2437C42.4892 38.2437 40.127 40.6059 40.127 43.5199C40.127 46.4339 42.4892 48.7962 45.4032 48.7962Z" fill="#8731D2"/>
</svg>
