<svg width="72" height="72" viewBox="0 0 72 72" fill="none" xmlns="http://www.w3.org/2000/svg">
<path d="M22 22L64 22" stroke="#300D4F" stroke-width="4" stroke-linecap="round" stroke-linejoin="round"/>
<path d="M22 40L64 40" stroke="#300D4F" stroke-width="4" stroke-linecap="round" stroke-linejoin="round"/>
<path d="M22 58L64 58" stroke="#300D4F" stroke-width="4" stroke-linecap="round" stroke-linejoin="round"/>
<path d="M9.784 27.752H12.776V17H9.928L7 18.616V21.56L9.784 20.04V27.752Z" fill="#33115C"/>
<path d="M9.408 42.384C9.456 42.288 9.536 42.192 9.648 42.112C10.048 41.824 10.688 41.536 11.536 41.248C14.208 40.336 15.072 39.328 15.072 37.504C15.072 35.504 13.216 34 10.8 34C8.032 34 6.128 35.632 6 38.032L8.928 38.256C8.976 37.28 9.728 36.576 10.736 36.576C11.584 36.576 12.08 36.912 12.08 37.504C12.032 38.256 11.744 38.448 9.76 39.2C8.272 39.76 7.376 40.32 6.752 41.04C6.288 41.632 6.064 42.304 6.064 43.248V45.072H14.96V42.384H9.408Z" fill="#33115C"/>
<path d="M6 59.504C6.336 61.936 8.048 63.424 10.864 63.424C13.552 63.424 15.36 62.096 15.36 60.032C15.36 58.848 14.784 58.016 13.648 57.52V57.488C14.608 56.96 15.072 56.288 15.072 55.328C15.072 53.376 13.296 52 10.8 52C8.384 52 6.448 53.456 6.16 55.52L9.088 55.984C9.248 55.104 9.824 54.672 10.8 54.672C11.632 54.672 12.208 55.072 12.208 55.664C12.208 56.256 11.712 56.576 10.832 56.576H9.696V58.64H10.816C11.792 58.64 12.368 59.024 12.368 59.664C12.368 60.416 11.904 60.768 10.864 60.768C9.76 60.768 9.152 60.24 8.976 59.008L6 59.504Z" fill="#33115C"/>
</svg>
