<svg width="64" height="64" viewBox="0 0 64 64" fill="none" xmlns="http://www.w3.org/2000/svg">
<path d="M46.3889 54.611H17.6111C15.35 54.611 13.5 52.761 13.5 50.4999V29.9444C13.5 27.6833 15.35 25.8333 17.6111 25.8333H46.3889C48.65 25.8333 50.5 27.6833 50.5 29.9444V50.4999C50.5 52.761 48.65 54.611 46.3889 54.611Z" stroke="#2AE9AA" stroke-width="3.08333" stroke-miterlimit="10" stroke-linecap="round" stroke-linejoin="round"/>
<path d="M21.7222 25.8333V19.6666C21.7222 13.9111 26.2444 9.38885 31.9999 9.38885C37.7555 9.38885 42.2777 13.9111 42.2777 19.6666V25.8333" stroke="#2AE9AA" stroke-width="3.08333" stroke-miterlimit="10" stroke-linecap="round" stroke-linejoin="round"/>
<path d="M35.0148 41.399C36.302 40.4553 37.1391 38.9229 37.1391 37.1929C37.1391 34.3249 34.8383 31.9999 32.0002 31.9999C29.1621 31.9999 26.8613 34.3249 26.8613 37.1929C26.8613 38.9227 27.6983 40.455 28.9853 41.3987L27.7176 48.4444H36.2824L35.0148 41.399Z" stroke="#2AE9AA" stroke-width="3.08333" stroke-linecap="round" stroke-linejoin="round"/>
</svg>
