<svg width="64" height="64" viewBox="0 0 64 64" fill="none" xmlns="http://www.w3.org/2000/svg">
<path d="M42.0697 28.9652H44.0697V26.9652V16.8952C44.0697 10.2291 38.6658 4.8252 31.9997 4.8252C25.3336 4.8252 19.9297 10.2291 19.9297 16.8952V26.9652V28.9652H21.9297H26.4052H28.4052V26.9652V16.8952C28.4052 14.91 30.0145 13.3007 31.9997 13.3007C33.9848 13.3007 35.5941 14.91 35.5941 16.8952V26.9652V28.9652H37.5941H42.0697Z" fill="white" stroke="#8731D2" stroke-width="4"/>
<path d="M46.7825 26.9648H17.2158C16.1113 26.9648 15.2158 27.8603 15.2158 28.9648V55.1748C15.2158 56.2794 16.1112 57.1748 17.2158 57.1748H46.7825C47.887 57.1748 48.7825 56.2794 48.7825 55.1748V28.9648C48.7825 27.8603 47.887 26.9648 46.7825 26.9648Z" fill="white" stroke="#8731D2" stroke-width="4" stroke-miterlimit="10" stroke-linecap="round" stroke-linejoin="round"/>
<path d="M35.4141 42.8928L34.2397 41.274C33.6172 41.7256 33.3088 42.494 33.4464 43.2506L35.4141 42.8928ZM28.8488 42.8925L30.8166 43.2503C30.9541 42.4938 30.6458 41.7254 30.0235 41.2738L28.8488 42.8925ZM27.4685 50.4843L25.5008 50.1266C25.3947 50.71 25.553 51.3105 25.933 51.7658C26.313 52.2211 26.8755 52.4843 27.4685 52.4843V50.4843ZM36.7944 50.4843V52.4843C37.3875 52.4843 37.9499 52.2211 38.3299 51.7658C38.7099 51.3105 38.8683 50.71 38.7622 50.1266L36.7944 50.4843ZM35.7272 38.3607C35.7272 39.557 35.145 40.6172 34.2397 41.274L36.5886 44.5116C38.4865 43.1347 39.7272 40.8925 39.7272 38.3607H35.7272ZM32.1317 34.7651C34.1175 34.7651 35.7272 36.3749 35.7272 38.3607H39.7272C39.7272 34.1658 36.3266 30.7651 32.1317 30.7651V34.7651ZM28.5361 38.3607C28.5361 36.3749 30.1459 34.7651 32.1317 34.7651V30.7651C27.9368 30.7651 24.5361 34.1658 24.5361 38.3607H28.5361ZM30.0235 41.2738C29.1183 40.617 28.5361 39.5569 28.5361 38.3607H24.5361C24.5361 40.8923 25.7766 43.1343 27.6742 44.5112L30.0235 41.2738ZM29.4362 50.8421L30.8166 43.2503L26.8811 42.5348L25.5008 50.1266L29.4362 50.8421ZM36.7944 48.4843H27.4685V52.4843H36.7944V48.4843ZM33.4464 43.2506L34.8267 50.8421L38.7622 50.1266L37.3819 42.535L33.4464 43.2506Z" fill="#8731D2"/>
<path d="M31.9987 11.3008C28.909 11.3008 26.4043 13.8055 26.4043 16.8952V26.9652H37.5932V16.8952C37.5932 13.8055 35.0885 11.3008 31.9987 11.3008Z" fill="white" stroke="#8731D2" stroke-width="4"/>
</svg>
