<svg width="177" height="20" viewBox="0 0 177 20" fill="none" xmlns="http://www.w3.org/2000/svg">
<path d="M34.2282 4.73601C32.6551 1.81223 29.5737 -0.0107786 26.223 4.79571e-05H0.867953C0.51559 0.00173936 0.198872 0.21281 0.0652094 0.535023C-0.0684534 0.857235 0.00720052 1.22728 0.25696 1.47293L5.76788 6.96191C6.25619 7.44728 6.92028 7.72003 7.61284 7.71966H25.4874C26.3109 7.7112 27.0764 8.13757 27.4956 8.83815C27.9147 9.53873 27.9239 10.4071 27.5195 11.1161C27.1152 11.8252 26.3588 12.2672 25.5353 12.2757H13.2148C12.8616 12.2754 12.5431 12.4858 12.4082 12.8084C12.2733 13.1311 12.3487 13.5023 12.599 13.7485L18.1243 19.2422C18.6118 19.7275 19.2751 20.0003 19.9669 20H25.5401C32.7906 20 38.2727 12.3396 34.2282 4.73364" fill="white"/>
<path fill-rule="evenodd" clip-rule="evenodd" d="M59.1592 9.99507C59.1592 6.0216 55.9653 2.86035 51.7314 2.86035L46.7261 2.86272C46.5262 2.86272 46.3643 3.02281 46.3643 3.22028V16.7935C46.3643 16.991 46.5262 17.1511 46.7261 17.1511H51.7314C55.9581 17.1511 59.1592 13.9685 59.1592 9.99507ZM49.4602 14.3855V5.60979H51.8898C53.0334 5.64381 54.1164 6.12552 54.9006 6.9489C55.6847 7.77227 56.1057 8.86983 56.0709 10C56.0843 11.1504 55.6346 12.2588 54.8207 13.0814C54.0069 13.9039 52.8956 14.373 51.7316 14.3855H49.4602Z" fill="white"/>
<path fill-rule="evenodd" clip-rule="evenodd" d="M77.9475 9.97622C77.9475 5.90093 74.5403 2.51709 70.0837 2.51709L70.0861 2.52656C65.6582 2.52656 62.251 5.89383 62.251 9.9857C62.251 14.0776 65.627 17.4354 70.0837 17.4354C74.5403 17.4354 77.9475 14.0515 77.9475 9.97622ZM74.8464 9.99851C74.8393 12.5916 72.7068 14.6881 70.083 14.6816C68.8225 14.6784 67.6148 14.1804 66.726 13.297C65.8371 12.4137 65.3398 11.2175 65.3436 9.97167C65.3516 7.37863 67.4848 5.2828 70.1086 5.29021C72.7324 5.29762 74.8534 7.40547 74.8464 9.99851Z" fill="white"/>
<path fill-rule="evenodd" clip-rule="evenodd" d="M96.6182 9.97622C96.6182 5.88436 93.211 2.51709 88.7687 2.51709L88.7711 2.51946C84.3144 2.51946 80.9072 5.88672 80.9072 9.97859C80.9072 14.0705 84.3408 17.4354 88.7687 17.4354C93.1966 17.4354 96.6182 14.0681 96.6182 9.97622ZM93.5113 9.98115C93.514 12.5727 91.3918 14.6764 88.7695 14.6816H88.7504C86.1281 14.6764 84.0059 12.5727 84.0086 9.98115C84.0112 7.38964 86.1377 5.29019 88.76 5.29019C91.3822 5.29019 93.5087 7.38964 93.5113 9.98115Z" fill="white"/>
<path fill-rule="evenodd" clip-rule="evenodd" d="M101.072 2.86279C100.872 2.86279 100.71 3.02288 100.71 3.22036L100.722 16.7794C100.722 16.9769 100.884 17.137 101.084 17.137H103.437C103.636 17.137 103.798 16.9769 103.798 16.7794V12.1642H106.482L109.163 16.9712C109.227 17.0916 109.354 17.1659 109.491 17.163H111.933C112.071 17.1731 112.202 17.1048 112.272 16.9871C112.342 16.8693 112.338 16.7226 112.261 16.6089L109.482 11.7427C111.082 10.9513 112.084 9.32648 112.062 7.5585C112.062 4.94425 109.983 2.86279 107.107 2.86279H101.072ZM103.807 5.60742H107.01L107.001 5.62163H107.133C108.18 5.65762 108.999 6.52589 108.963 7.561V7.62967C108.915 8.64937 108.042 9.439 107.01 9.39618H103.807V5.60742Z" fill="white"/>
<path fill-rule="evenodd" clip-rule="evenodd" d="M129.83 10.0825C129.83 6.09013 126.636 2.92651 122.402 2.92651L117.409 2.93362C117.209 2.93362 117.047 3.0937 117.047 3.29118V16.881C117.047 17.0785 117.209 17.2386 117.409 17.2386H122.402C126.629 17.2386 129.83 14.075 129.83 10.0825ZM120.131 14.4447V5.68314H122.565C123.71 5.71531 124.796 6.19654 125.581 7.02064C126.367 7.84473 126.789 8.94396 126.753 10.0757C126.772 12.4694 124.824 14.4251 122.402 14.4447H120.131Z" fill="white"/>
<path fill-rule="evenodd" clip-rule="evenodd" d="M135.349 16.8767L136.499 13.751L142.063 13.7699L143.213 16.8956C143.267 17.0452 143.414 17.1417 143.575 17.1324H146.067C146.195 17.1439 146.32 17.087 146.394 16.9831C146.469 16.8792 146.482 16.744 146.428 16.628L141.037 3.07847C140.983 2.92889 140.836 2.83244 140.676 2.84167H137.882C137.721 2.83244 137.574 2.92889 137.52 3.07847L132.131 16.6091C132.078 16.725 132.091 16.8603 132.165 16.9642C132.24 17.0681 132.365 17.1249 132.493 17.1135H134.987C135.148 17.1227 135.295 17.0263 135.349 16.8767ZM137.536 11.1058L139.288 6.41005L141.047 11.1058H137.536Z" fill="white"/>
<path d="M149.324 6.71582C149.324 4.47098 151.286 2.5316 154.391 2.5316C156.052 2.49229 157.664 3.09165 158.886 4.2034C159.031 4.33737 159.039 4.56107 158.906 4.70541L158.886 4.72435L157.492 6.0812C157.351 6.21842 157.125 6.21842 156.984 6.0812C156.327 5.49182 155.475 5.16001 154.588 5.14822C153.349 5.14822 152.431 5.85861 152.431 6.6803C152.431 9.33244 159.756 7.80273 159.756 12.9081C159.756 15.4939 157.777 17.4522 154.279 17.4522C152.328 17.4798 150.447 16.7384 149.051 15.3921C148.906 15.2581 148.898 15.0344 149.031 14.8901L149.051 14.8711L150.388 13.5498C150.525 13.4093 150.751 13.404 150.896 13.538L150.908 13.5498C151.76 14.3533 152.89 14.8048 154.068 14.8119C155.618 14.8119 156.639 13.995 156.639 12.972C156.639 10.3199 149.317 11.8496 149.317 6.74424" fill="white"/>
<path d="M173.036 3.20651V8.57235H166.837V3.20651C166.837 3.00903 166.675 2.84895 166.476 2.84895H164.132C163.932 2.84895 163.771 3.00903 163.771 3.20651V16.7561C163.771 16.9536 163.932 17.1137 164.132 17.1137H166.485C166.685 17.1137 166.847 16.9536 166.847 16.7561V11.3097H173.043V16.7561C173.043 16.9536 173.205 17.1137 173.405 17.1137H175.758C175.958 17.1137 176.12 16.9536 176.12 16.7561V3.20651C176.12 3.00903 175.958 2.84895 175.758 2.84895H173.405C173.308 2.84704 173.214 2.88387 173.145 2.95113C173.075 3.0184 173.036 3.11044 173.036 3.20651Z" fill="white"/>
</svg>
