<svg width="172" height="65" viewBox="0 0 172 65" fill="none" xmlns="http://www.w3.org/2000/svg">
<rect y="0.0546875" width="171.636" height="64" rx="2" fill="white"/>
<path d="M30.0784 22.2022L27.2505 23.8447C27.2062 23.8705 27.1789 23.9179 27.1787 23.9693V49.1669C27.1791 49.1923 27.1927 49.2156 27.2146 49.2283L30.186 50.9539C30.2081 50.9667 30.2352 50.9668 30.2573 50.9542C30.2795 50.9416 30.2933 50.9181 30.2937 50.8925V22.3268C30.2935 22.2753 30.2661 22.2278 30.2217 22.2021C30.1773 22.1764 30.1227 22.1765 30.0784 22.2022Z" fill="#2AE9AA"/>
<path d="M33.5817 48.9917V45.7661C33.5812 45.7146 33.6081 45.6667 33.6522 45.6407C33.6963 45.6147 33.7508 45.6146 33.7951 45.6404L36.4534 47.1911C36.4969 47.2174 36.5235 47.2648 36.5235 47.316C36.5235 47.3672 36.4969 47.4146 36.4534 47.4409L33.6884 49.0582C33.6657 49.0715 33.6376 49.0711 33.6153 49.0572C33.593 49.0433 33.5801 49.0181 33.5817 48.9917Z" fill="#2AE9AA"/>
<path d="M33.4088 41.8258V38.5256C33.409 38.4745 33.4369 38.4274 33.482 38.4019C33.5271 38.3764 33.5825 38.3765 33.6276 38.402L42.6801 43.5385C42.7256 43.564 42.7537 43.6115 42.7537 43.663C42.7537 43.7145 42.7256 43.7621 42.6801 43.7876L39.7725 45.4394C39.7499 45.4518 39.7223 45.4518 39.6996 45.4394L33.4453 41.8903C33.4213 41.8776 33.4071 41.8524 33.4088 41.8258Z" fill="#2AE9AA"/>
<path d="M33.5816 34.6116V31.2899C33.5811 31.2381 33.6087 31.19 33.6538 31.1639C33.6989 31.1379 33.7547 31.1377 33.7999 31.1636L46.1418 38.2256C46.1869 38.2518 46.2146 38.2999 46.2146 38.3518V41.7566C46.2148 41.7824 46.201 41.8065 46.1784 41.8195C46.1559 41.8326 46.128 41.8326 46.1054 41.8197L33.618 34.6748C33.5949 34.662 33.5809 34.6377 33.5816 34.6116Z" fill="#2AE9AA"/>
<path d="M33.5815 27.3739V24.0521C33.5811 24.0003 33.6086 23.9522 33.6538 23.9261C33.6989 23.9001 33.7547 23.8999 33.7999 23.9258L46.1418 30.9878C46.1869 31.0132 46.2148 31.0608 46.2146 31.1122V34.5188C46.2148 34.5446 46.201 34.5687 46.1784 34.5817C46.1559 34.5948 46.128 34.5948 46.1054 34.5819L33.6179 27.4334C33.5958 27.4216 33.5819 27.3988 33.5815 27.3739Z" fill="#2AE9AA"/>
<path d="M23.8513 25.8182L21.0203 27.4607C20.9757 27.4861 20.9482 27.5337 20.9484 27.5852V45.5481C20.9488 45.5735 20.9624 45.5968 20.9843 45.6095L23.9537 47.335C23.9763 47.3477 24.0039 47.3476 24.0263 47.3346C24.0488 47.3217 24.0629 47.2979 24.0634 47.2719V25.9445C24.0621 25.8942 24.0352 25.8481 23.9921 25.8225C23.949 25.7968 23.8958 25.7952 23.8513 25.8182Z" fill="#2AE9AA"/>
<path d="M17.4396 29.4426L14.6173 31.084C14.5727 31.1094 14.5453 31.157 14.5455 31.2085V41.9284C14.5444 41.9546 14.5584 41.9791 14.5814 41.9915L17.5527 43.7159C17.575 43.7288 17.6025 43.7288 17.6248 43.7157C17.647 43.7027 17.6606 43.6787 17.6604 43.6528V29.5688C17.6609 29.5158 17.6328 29.4667 17.5869 29.4405C17.5411 29.4143 17.4847 29.4151 17.4396 29.4426Z" fill="#2AE9AA"/>
<path d="M14.5459 27.1045V23.6981C14.5453 23.6465 14.5733 23.5988 14.6189 23.5736L30.3101 14.6192C30.3554 14.5937 30.4108 14.5937 30.4561 14.6192L46.1419 23.5772C46.1874 23.6024 46.2154 23.6501 46.2148 23.7017V27.1045C46.2151 27.1304 46.2013 27.1545 46.1786 27.1675C46.156 27.1806 46.1281 27.1806 46.1054 27.1677L30.4196 18.2114C30.3969 18.1989 30.3693 18.1989 30.3466 18.2114L14.6608 27.1677C14.6379 27.1837 14.6078 27.1853 14.5833 27.1718C14.5588 27.1583 14.5443 27.1322 14.5459 27.1045Z" fill="#2AE9AA"/>
<path fill-rule="evenodd" clip-rule="evenodd" d="M61.7898 23.2932H70.3647C73.779 23.2932 76.233 25.5129 76.233 28.5754C76.233 30.1765 75.4715 31.5052 74.2307 32.2549V32.3117C75.9232 33.0976 76.9667 34.7848 76.9667 36.8357C76.9667 40.9718 74.5128 42.9589 69.4631 42.9589H61.7898V23.2932ZM69.7733 31.1293C71.2685 31.1293 72.087 30.3985 72.087 29.0508C72.087 27.7307 71.2685 27 69.7733 27H65.9661V31.1361L69.7733 31.1293ZM72.8207 36.8044C72.8207 38.4624 72.0022 39.2482 70.2249 39.2482L65.9643 39.243V34.4175H70.2526C71.9174 34.4175 72.8207 35.2534 72.8207 36.8044Z" fill="#300D4F"/>
<path d="M81.0266 23.2913H93.7513V27.112H85.2024V31.1017H92.9899V34.7536H85.2024V39.1465H93.779V42.9673H81.0266V23.2913Z" fill="#300D4F"/>
<path fill-rule="evenodd" clip-rule="evenodd" d="M101.226 39.8962H108.786L109.823 42.9569H113.976L106.924 23.2913H103.088L96.0339 42.9587H100.187L101.226 39.8962ZM105.033 28.9959L107.516 36.2445H102.494L104.977 28.9959H105.033Z" fill="#300D4F"/>
<path d="M117.05 23.2913H121.675L127.213 36.5235H127.268L132.82 23.2913H137.446V42.9587H133.355V30.8225H133.299L128.137 42.9587H126.33L121.196 30.8225H121.141V42.9587H117.05V23.2913Z" fill="#300D4F"/>
<path d="M145.287 35.5981C145.824 38.5279 146.98 39.6446 149.603 39.6446C151.55 39.6446 152.651 38.9415 152.651 37.7058C152.651 36.3271 151.72 35.655 148.418 34.5313C143.82 32.9803 142.1 31.3275 142.1 28.434C142.1 25.1474 144.868 22.8726 148.785 22.8726C152.651 22.8726 155.669 25.2043 156.29 28.6597L152.227 29.5214C151.69 27.5275 150.591 26.6003 148.785 26.6003C147.227 26.6003 146.218 27.3017 146.218 28.3978C146.218 29.4094 147.064 29.9712 149.998 30.9553C152.452 31.798 154.229 32.7235 155.274 33.7644C156.319 34.8053 156.832 36.0962 156.832 37.6972C156.832 41.0957 153.869 43.3724 149.553 43.3724C144.842 43.3724 141.909 40.9596 141.203 36.4615L145.287 35.5981Z" fill="#300D4F"/>
</svg>
