<svg width="72" height="72" viewBox="0 0 72 72" fill="none" xmlns="http://www.w3.org/2000/svg">
<path d="M35.771 5.24346L36.6166 7.75746L39.2892 7.77878C39.6356 7.78115 39.7789 8.2195 39.4994 8.42328L37.3498 9.99897L38.1547 12.5272C38.2598 12.8542 37.8824 13.1243 37.603 12.9253L35.4295 11.3827L33.256 12.9253C32.9742 13.1243 32.5992 12.8542 32.7043 12.5272L33.5092 9.99897L31.3596 8.42328C31.0825 8.2195 31.2234 7.78115 31.5697 7.77878L34.2424 7.75746L35.0879 5.24346C35.1954 4.91885 35.6612 4.91885 35.771 5.24346Z" fill="#6A52FF"/>
<path d="M35.771 59.2339L36.6166 61.7479L39.2892 61.7693C39.6356 61.7716 39.7789 62.21 39.4994 62.4138L37.3498 63.9894L38.1547 66.5177C38.2598 66.8446 37.8824 67.1148 37.603 66.9157L35.4295 65.3732L33.256 66.9157C32.9742 67.1148 32.5992 66.8446 32.7043 66.5177L33.5092 63.9894L31.3596 62.4138C31.0825 62.21 31.2234 61.7716 31.5697 61.7693L34.2424 61.7479L35.0879 59.2339C35.1954 58.9093 35.6612 58.9093 35.771 59.2339Z" fill="#6A52FF"/>
<path d="M62.9825 32.2386L63.8281 34.7526L66.5008 34.7739C66.8471 34.7763 66.9904 35.2146 66.7109 35.4184L64.5613 36.9941L65.3662 39.5223C65.4713 39.8493 65.0939 40.1194 64.8145 39.9204L62.641 38.3779L60.4675 39.9204C60.1857 40.1194 59.8107 39.8493 59.9158 39.5223L60.7207 36.9941L58.5711 35.4184C58.2916 35.2146 58.4349 34.7763 58.7812 34.7739L61.4539 34.7526L62.2994 32.2386C62.4093 31.914 62.8727 31.914 62.9825 32.2386Z" fill="#6A52FF"/>
<path d="M8.55921 32.2386L9.40472 34.7526L12.0774 34.7739C12.4237 34.7763 12.567 35.2146 12.2876 35.4184L10.138 36.9941L10.9429 39.5223C11.048 39.8493 10.673 40.1194 10.3912 39.9204L8.21766 38.3779L6.04416 39.9204C5.76232 40.1194 5.38733 39.8493 5.49242 39.5223L6.29733 36.9941L4.14772 35.4184C3.86827 35.2146 4.01158 34.7763 4.3579 34.7739L7.03059 34.7526L7.87611 32.2386C7.98359 31.914 8.44934 31.914 8.55921 32.2386Z" fill="#6A52FF"/>
<path d="M12.6431 18.1429L13.4886 20.6569L16.1613 20.6783C16.5076 20.6806 16.651 21.119 16.3715 21.3228L14.2219 22.8985L15.0268 25.4267C15.1319 25.7537 14.7569 26.0238 14.4751 25.8247L12.3016 24.2822L10.1281 25.8247C9.84622 26.0238 9.47124 25.7537 9.57633 25.4267L10.3812 22.8985L8.23162 21.3228C7.95456 21.119 8.09548 20.6806 8.44181 20.6783L11.1145 20.6569L11.96 18.1429C12.0699 17.816 12.5332 17.816 12.6431 18.1429Z" fill="#6A52FF"/>
<path d="M59.775 45.1381L60.6205 47.6521L63.2932 47.6734C63.6396 47.6758 63.7829 48.1141 63.5034 48.3179L61.3538 49.8936L62.1587 52.4218C62.2638 52.7488 61.8864 53.0189 61.607 52.8198L59.4335 51.2773L57.26 52.8198C56.9781 53.0189 56.6031 52.7488 56.7082 52.4218L57.5132 49.8936L55.3635 48.3179C55.0841 48.1141 55.2274 47.6758 55.5737 47.6734L58.2464 47.6521L59.0919 45.1381C59.2018 44.8111 59.6675 44.8111 59.775 45.1381Z" fill="#6A52FF"/>
<path d="M49.8151 8.25982L50.6606 10.7738L53.3333 10.7951C53.6796 10.7975 53.823 11.2359 53.5435 11.4396L51.3939 13.0153L52.2012 15.5435C52.3063 15.8705 51.9289 16.1406 51.6495 15.9416L49.476 14.3991L47.3025 15.9416C47.0206 16.1406 46.6456 15.8705 46.7507 15.5435L47.5556 13.0153L45.406 11.4396C45.1266 11.2359 45.2699 10.7975 45.6162 10.7951L48.2889 10.7738L49.1344 8.25982C49.2419 7.9352 49.7052 7.9352 49.8151 8.25982Z" fill="#6A52FF"/>
<path d="M22.6031 55.0187L23.4486 57.5327L26.1213 57.554C26.4676 57.5564 26.6109 57.9947 26.3315 58.1985L24.1818 59.7742L24.9868 62.3024C25.0919 62.6294 24.7169 62.8995 24.435 62.7005L22.2615 61.1579L20.088 62.7005C19.8062 62.8995 19.4312 62.6294 19.5363 62.3024L20.3412 59.7742L18.1916 58.1985C17.9145 57.9947 18.0554 57.5564 18.4018 57.554L21.0745 57.5327L21.92 55.0187C22.0298 54.6917 22.4932 54.6917 22.6031 55.0187Z" fill="#6A52FF"/>
<path d="M59.0919 18.1429L58.2464 20.6569L55.5737 20.6783C55.2274 20.6806 55.0841 21.119 55.3635 21.3228L57.5132 22.8985L56.7082 25.4267C56.6031 25.7537 56.9805 26.0238 57.26 25.8247L59.4335 24.2822L61.607 25.8247C61.8888 26.0238 62.2638 25.7537 62.1587 25.4267L61.3538 22.8985L63.5034 21.3228C63.7829 21.119 63.6396 20.6806 63.2932 20.6783L60.6205 20.6569L59.775 18.1429C59.6675 17.816 59.2018 17.816 59.0919 18.1429Z" fill="#6A52FF"/>
<path d="M11.9601 45.1381L11.1146 47.6521L8.44189 47.6734C8.09556 47.6758 7.95225 48.1141 8.2317 48.3179L10.3813 49.8936L9.57641 52.4218C9.47131 52.7488 9.8463 53.0189 10.1281 52.8198L12.3016 51.2773L14.4751 52.8198C14.757 53.0189 15.132 52.7488 15.0269 52.4218L14.222 49.8936L16.3716 48.3179C16.6486 48.1141 16.5077 47.6758 16.1614 47.6734L13.4887 47.6521L12.6432 45.1381C12.5333 44.8111 12.07 44.8111 11.9601 45.1381Z" fill="#6A52FF"/>
<path d="M21.9201 8.25982L21.0745 10.7738L18.4018 10.7951C18.0555 10.7975 17.9122 11.2359 18.1917 11.4396L20.3413 13.0153L19.5364 15.5435C19.4313 15.8705 19.8063 16.1406 20.0881 15.9416L22.2616 14.3991L24.4351 15.9416C24.7169 16.1406 25.0919 15.8705 24.9868 15.5435L24.1819 13.0153L26.3315 11.4396C26.6086 11.2359 26.4677 10.7975 26.1214 10.7951L23.4487 10.7738L22.6032 8.25982C22.4933 7.9352 22.0299 7.9352 21.9201 8.25982Z" fill="#6A52FF"/>
<path d="M49.132 55.0187L48.2865 57.5327L45.6138 57.554C45.2674 57.5564 45.1241 57.9947 45.4036 58.1985L47.5532 59.7742L46.7483 62.3024C46.6432 62.6294 47.0206 62.8995 47.3 62.7005L49.4735 61.1579L51.647 62.7005C51.9289 62.8995 52.3038 62.6294 52.1988 62.3024L51.3938 59.7742L53.5435 58.1985C53.8229 57.9947 53.6796 57.5564 53.3333 57.554L50.6606 57.5327L49.8151 55.0187C49.7052 54.6917 49.2418 54.6917 49.132 55.0187Z" fill="#6A52FF"/>
<path d="M28.7891 32.3663V33.3663H29.7891H32.3149H33.3149V32.3663V26.6831C33.3149 25.4917 34.2807 24.5258 35.4722 24.5258C36.6636 24.5258 37.6295 25.4917 37.6295 26.6831V32.3663V33.3663H38.6295H41.1553H42.1553V32.3663V26.6831C42.1553 22.9921 39.1632 20 35.4722 20C31.7812 20 28.7891 22.9921 28.7891 26.6831V32.3663Z" fill="white" stroke="#6A52FF" stroke-width="2"/>
<path d="M42.9437 32.3662H28C26.8954 32.3662 26 33.2616 26 34.3662V47.4156C26 48.5202 26.8954 49.4156 28 49.4156H42.9438C44.0483 49.4156 44.9438 48.5202 44.9438 47.4156V34.3662C44.9438 33.2616 44.0483 32.3662 42.9437 32.3662Z" fill="white" stroke="#6A52FF" stroke-width="2" stroke-miterlimit="10" stroke-linecap="round" stroke-linejoin="round"/>
<path d="M37.3983 41.3555L36.8112 40.5461L36.3019 40.9154L36.4145 41.5344L37.3983 41.3555ZM33.6931 41.355L34.677 41.5338L34.7895 40.9151L34.2805 40.5457L33.6931 41.355ZM32.9141 45.6397L31.9302 45.4608L31.7158 46.6397H32.9141V45.6397ZM38.1773 45.6397V46.6397H39.3755L39.1611 45.4608L38.1773 45.6397ZM37.704 38.7976C37.704 39.5158 37.3542 40.1522 36.8112 40.5461L37.9855 42.165C39.0248 41.4111 39.704 40.1836 39.704 38.7976H37.704ZM35.5461 36.6396C36.7379 36.6396 37.704 37.6058 37.704 38.7976H39.704C39.704 36.5012 37.8425 34.6396 35.5461 34.6396V36.6396ZM33.3882 38.7976C33.3882 37.6058 34.3543 36.6396 35.5461 36.6396V34.6396C33.2497 34.6396 31.3882 36.5012 31.3882 38.7976H33.3882ZM34.2805 40.5457C33.7378 40.1518 33.3882 39.5155 33.3882 38.7976H31.3882C31.3882 40.1832 32.0669 41.4103 33.1057 42.1643L34.2805 40.5457ZM33.8979 45.8186L34.677 41.5338L32.7092 41.1761L31.9302 45.4608L33.8979 45.8186ZM38.1773 44.6397H32.9141V46.6397H38.1773V44.6397ZM36.4145 41.5344L37.1934 45.8186L39.1611 45.4608L38.3822 41.1766L36.4145 41.5344Z" fill="#6A52FF"/>
<path d="M35.4717 23.5259C33.728 23.5259 32.3145 24.9394 32.3145 26.6832V32.3663H38.629V26.6832C38.629 24.9394 37.2155 23.5259 35.4717 23.5259Z" fill="white" stroke="#6A52FF" stroke-width="2"/>
</svg>
