<svg width="96" height="96" viewBox="0 0 96 96" fill="none" xmlns="http://www.w3.org/2000/svg">
<g clip-path="url(#clip0)">
<path d="M31.9487 53.9125C30.9549 51.5151 29.9612 49.1178 28.8571 46.7203C30.4029 44.214 31.7278 41.5986 33.384 39.0923C34.0465 38.0027 35.2611 37.3488 36.1444 36.477C37.6902 35.0604 39.2359 33.5348 40.7818 32.2271C41.5547 31.5733 42.5484 31.1374 43.5421 30.8105C45.1983 30.1567 46.8546 29.6118 48.5107 28.958C50.4982 30.2657 52.3752 31.5733 54.3627 32.99C53.4794 35.6053 52.596 38.2206 51.9336 40.8359C51.4919 42.4705 50.2774 43.2332 49.1733 44.214C46.4129 46.8293 43.6526 49.4446 40.7818 51.951C40.3402 52.3869 39.4568 52.3869 38.6839 52.4958C36.4756 52.9317 34.1569 53.3676 31.9487 53.9125Z" fill="#300D4F" stroke="white" stroke-width="0.484007"/>
<path d="M41.8883 53.9121C46.5258 55.6557 51.0527 57.3992 55.5797 59.1428C50.6111 63.6106 45.0903 67.0977 38.2446 68.0784C39.4592 63.3926 40.6737 58.5979 41.8883 53.9121Z" fill="#300D4F" stroke="white" stroke-width="0.484007"/>
<path d="M53.59 43.3421C58.117 43.2331 62.644 43.1241 67.1709 43.0151C65.1835 48.2458 61.871 52.7136 58.117 56.7455C56.5712 52.2777 55.1358 47.8099 53.59 43.3421Z" fill="#300D4F" stroke="white" stroke-width="0.484007"/>
<path d="M51.933 43.9958C53.4788 48.4637 54.9142 53.0404 56.46 57.5083C51.933 55.7647 47.4061 54.0211 42.8791 52.2776C45.8603 49.6623 48.9518 46.8291 51.933 43.9958Z" fill="#300D4F" stroke="white" stroke-width="0.484007"/>
<path d="M58.7805 58.4891C62.3137 54.7841 65.5157 50.7522 67.7239 46.0664C67.1719 52.4957 66.7303 58.925 66.2886 65.0274C63.8594 62.9569 61.32 60.7775 58.7805 58.4891Z" fill="#300D4F" stroke="white" stroke-width="0.484007"/>
<path d="M63.6377 29.0674C67.723 30.484 69.4896 35.0608 67.8335 40.5093C64.3002 37.7851 60.6565 35.2788 57.0129 32.6634C59.3316 31.4648 61.4295 30.2661 63.6377 29.0674Z" fill="#300D4F" stroke="white" stroke-width="0.484007"/>
<path d="M65.1844 66.4439C59.0013 66.8798 52.4868 67.3157 45.9724 67.7515C50.3889 65.7901 54.143 62.9568 57.5659 59.7966C60.1054 61.9761 62.7553 64.2645 65.1844 66.4439Z" fill="#300D4F" stroke="white" stroke-width="0.484007"/>
<path d="M66.1771 41.3807C61.9815 41.4896 57.7857 41.5986 53.59 41.7075C54.3628 39.2012 55.2461 36.6949 56.0191 34.0796C59.3315 36.477 62.7543 38.8743 66.1771 41.3807Z" fill="#300D4F" stroke="white" stroke-width="0.484007"/>
<path d="M36.6959 67.2067C35.2605 63.2836 33.9355 59.4696 32.5002 55.5467C35.0397 55.0018 37.4688 54.457 40.0083 53.9121C38.9042 58.3799 37.8 62.7387 36.6959 67.2067Z" fill="#300D4F" stroke="white" stroke-width="0.484007"/>
<path d="M35.1535 68.1873C31.9515 67.8605 29.0807 66.2259 28.1974 62.3029C28.1974 62.1939 28.1974 62.0849 28.1974 61.976C29.1911 60.3414 30.1849 58.7068 31.1786 56.9634C32.5035 60.7773 33.8285 64.4824 35.1535 68.1873Z" fill="#300D4F" stroke="white" stroke-width="0.484007"/>
<path d="M50.8308 28.304H61.3202C59.3328 29.3937 57.4557 30.4834 55.4683 31.4641C53.9225 30.4834 52.3766 29.3937 50.8308 28.304Z" fill="#300D4F" stroke="white" stroke-width="0.484007"/>
<path d="M30.405 54.8931C29.5217 56.3097 28.7488 57.7263 27.8655 59.1429C27.8655 55.7648 27.8655 52.3867 27.8655 48.8997C28.7488 50.97 29.5217 52.9316 30.405 54.8931Z" fill="#300D4F" stroke="white" stroke-width="0.484007"/>
</g>
<defs>
<clipPath id="clip0">
<rect x="27.2867" y="27.2869" width="41.4247" height="41.4247" fill="white"/>
</clipPath>
</defs>
</svg>
