<svg width="96" height="96" viewBox="0 0 96 96" fill="none" xmlns="http://www.w3.org/2000/svg">
<g clip-path="url(#clip0)">
<path d="M62.7022 68.395C56.1333 71.9899 47.1012 72.3593 38.0143 68.6696C30.6566 65.704 24.5518 60.5128 20.6383 54.5816C22.5168 56.0644 24.7083 57.2511 27.0563 58.2887C36.4406 62.4556 45.8229 62.1703 52.4255 58.2993C52.4214 58.2953 52.4186 58.2926 52.4157 58.2887C43.0233 51.4666 35.0399 42.5685 29.0916 35.3024C27.8388 34.1159 26.8995 32.6328 25.9603 31.2981C33.1611 37.5267 44.5889 45.3862 48.658 47.6117C40.0496 39.0095 32.3786 28.3325 32.6911 28.6285C46.3103 41.6791 58.9908 49.0945 58.9908 49.0945C59.4102 49.3186 59.7339 49.5052 59.9943 49.6719C60.2688 49.0105 60.5094 48.3238 60.7121 47.6117C62.9036 40.0483 60.3997 31.4461 54.9201 24.3281C67.5992 31.5948 75.1139 45.2381 71.9822 56.6579C71.9006 56.9659 71.8119 57.27 71.7162 57.5687C71.7527 57.61 71.7893 57.6527 71.826 57.6966C78.0867 65.1121 76.3652 72.9714 75.5826 71.4887C72.1863 65.1921 65.8989 67.1175 62.7024 68.3951L62.7022 68.395Z" fill="#300D4F"/>
</g>
<defs>
<clipPath id="clip0">
<rect x="19.5934" y="24.3281" width="56.811" height="47.3425" fill="white"/>
</clipPath>
</defs>
</svg>
