<svg width="96" height="96" viewBox="0 0 96 96" fill="none" xmlns="http://www.w3.org/2000/svg">
<g clip-path="url(#clip0)">
<path d="M29.7688 39.3545H29.6422C28.0186 39.3545 26.6949 40.6896 26.6949 42.3177V55.2195C26.6949 56.8541 28.0186 58.185 29.6422 58.185H29.771C31.3945 58.185 32.7183 56.8497 32.7183 55.2195V42.3177C32.7162 40.6896 31.3903 39.3545 29.7688 39.3545Z" fill="#300D4F"/>
<path d="M34.1276 60.1988C34.1276 61.6974 35.3457 62.9179 36.8362 62.9179H39.7308V69.8868C39.7308 71.5233 41.0588 72.8543 42.6781 72.8543H42.8048C44.4305 72.8543 45.7563 71.5213 45.7563 69.8868V62.9179H49.8015V69.8868C49.8015 71.5233 51.1337 72.8543 52.7531 72.8543H52.8777C54.5033 72.8543 55.827 71.5213 55.827 69.8868V62.9179H58.7237C60.2121 62.9179 61.4303 61.6974 61.4303 60.1988V39.8271H34.1276V60.1988Z" fill="#300D4F"/>
<path d="M54.5837 27.473L56.8829 23.9047C57.0307 23.6797 56.9652 23.372 56.7393 23.2254C56.5156 23.0768 56.2095 23.1385 56.0637 23.3698L53.6801 27.0612C51.8919 26.3247 49.8947 25.9108 47.7855 25.9108C45.6742 25.9108 43.6812 26.3247 41.8888 27.0612L39.5094 23.3698C39.3638 23.1385 39.0555 23.0768 38.8296 23.2254C38.6037 23.3719 38.5383 23.6797 38.686 23.9047L40.9873 27.473C36.8386 29.5172 34.0412 33.3699 34.0412 37.7893C34.0412 38.061 34.0582 38.3285 34.0814 38.5938H61.4917C61.5149 38.3285 61.5297 38.061 61.5297 37.7893C61.5297 33.3699 58.7302 29.5172 54.5837 27.473ZM41.4307 33.8623C40.7023 33.8623 40.1111 33.2721 40.1111 32.5378C40.1111 31.8033 40.7023 31.2152 41.4307 31.2152C42.1632 31.2152 42.7502 31.8032 42.7502 32.5378C42.7502 33.2723 42.159 33.8623 41.4307 33.8623ZM54.1383 33.8623C53.4099 33.8623 52.8187 33.2721 52.8187 32.5378C52.8187 31.8033 53.4099 31.2152 54.1383 31.2152C54.8687 31.2152 55.4557 31.8032 55.4557 32.5378C55.4557 33.2721 54.8687 33.8623 54.1383 33.8623Z" fill="#300D4F"/>
<path d="M65.9199 39.3545H65.7975C64.1739 39.3545 62.8459 40.6896 62.8459 42.3177V55.2195C62.8459 56.8541 64.1761 58.185 65.7975 58.185H65.9221C67.5477 58.185 68.8694 56.8497 68.8694 55.2195V42.3177C68.8694 40.6896 67.5435 39.3545 65.9199 39.3545Z" fill="#300D4F"/>
</g>
<defs>
<clipPath id="clip0">
<rect x="26.6949" y="23.1448" width="42.6082" height="49.7096" fill="white"/>
</clipPath>
</defs>
</svg>
