<svg width="141" height="28" viewBox="0 0 141 28" fill="none" xmlns="http://www.w3.org/2000/svg">
<path fill-rule="evenodd" clip-rule="evenodd" d="M44.4222 27.4783V24.9864L44.6102 25.2148C45.172 25.8802 45.8356 26.4522 46.5763 26.9094C47.9922 27.7682 49.6512 28.1356 51.2966 27.955C53.1059 27.8257 54.8159 27.0783 56.1409 25.8378C57.419 24.6459 58.193 23.1516 58.6611 21.4891C59.1508 19.6744 59.282 17.7815 59.0471 15.9165C58.89 14.3304 58.3955 12.7963 57.597 11.4176C55.7069 8.17858 52.2907 6.99076 49.1505 7.50955C47.3423 7.80689 45.7103 8.76987 44.5742 10.2097C44.5499 10.2377 44.5241 10.265 44.4896 10.3015C44.4674 10.325 44.4415 10.3522 44.4102 10.386V0.430664H39.2959V27.4783H44.4222ZM44.4251 20.9582V17.7172L44.4311 17.7252V14.4982C44.4233 14.3429 44.4731 14.1902 44.5711 14.0696C45.4866 12.9155 46.826 12.1774 48.2893 12.0204C49.7294 11.8442 51.0535 12.1707 52.1436 13.2022C52.9626 13.98 53.5079 15.0025 53.6977 16.1167C53.9777 17.615 53.9377 19.1053 53.3096 20.5235C52.6256 22.0499 51.4975 23.0574 49.8254 23.3138C47.7453 23.6323 45.9952 22.9573 44.5831 21.3989C44.4731 21.2794 44.4161 21.1204 44.4251 20.9582Z" fill="white"/>
<path fill-rule="evenodd" clip-rule="evenodd" d="M113.529 21.8576C112.956 21.1228 112.594 20.2436 112.482 19.3156L126.959 19.3136V17.89C126.95 16.5056 126.717 15.132 126.267 13.824C125.405 11.3684 123.884 9.48301 121.546 8.32246C119.65 7.3862 117.503 7.09728 115.43 7.49923C111.762 8.1538 109.199 10.252 107.807 13.7498C107.211 15.3198 106.985 17.0077 107.144 18.6811C107.234 20.1397 107.637 21.5612 108.324 22.8474C110.001 25.9235 112.679 27.4615 116.049 27.9033C117.441 28.0727 118.851 28.0185 120.227 27.7427C121.735 27.4575 123.177 26.9776 124.468 26.1163C124.732 25.9423 124.981 25.7494 125.232 25.5552C125.346 25.4669 125.46 25.3783 125.577 25.291L123.301 21.9339L123.141 22.0744C123.09 22.1186 123.038 22.1628 122.984 22.2029C121.328 23.462 119.262 24.0455 117.199 23.8373C115.748 23.7482 114.408 23.0254 113.529 21.8576ZM121.989 15.8099H112.396L112.39 15.8079C112.5 14.8662 112.861 13.972 113.433 13.2197C114.24 12.1508 115.484 11.5091 116.815 11.4749C118.036 11.4086 119.178 11.6315 120.187 12.3724C121.283 13.1756 121.818 14.296 121.989 15.6212C121.993 15.684 121.993 15.747 121.989 15.8099Z" fill="white"/>
<path d="M74.7072 8.18433H79.8903V27.4939H74.7072V25.1061C74.3611 25.4063 74.0616 25.6986 73.7297 25.9514C72.4951 26.9014 71.1412 27.6124 69.5626 27.8494C68.1714 28.0835 66.7464 28.0438 65.3712 27.7329C63.3473 27.2451 62.1188 25.9672 61.5744 24.0298C61.4022 23.4018 61.3171 22.7542 61.3214 22.1041V8.18433H66.5146V19.6986C66.5148 20.1872 66.5582 20.6748 66.6442 21.1561C66.8648 22.3747 67.6743 23.062 68.8704 23.3286C70.7809 23.7493 72.4708 23.2951 73.93 22.0251C74.0434 21.9284 74.1526 21.8276 74.266 21.7289C74.5656 21.4868 74.73 21.1205 74.7092 20.7414C74.689 16.6531 74.6971 12.5649 74.6971 8.47465C74.7022 8.37992 74.7022 8.28499 74.6971 8.19025L74.7072 8.18433Z" fill="white"/>
<path d="M106.691 7.90539V12.4185H102.676V27.5692H97.4188V12.7299C97.4188 12.4265 97.4188 12.4245 97.1047 12.4245H94.1416V7.91342H97.4067C97.4067 7.80492 97.4188 7.71249 97.4188 7.62206C97.3855 6.73168 97.4439 5.84026 97.5931 4.96163C98.0923 2.38191 100.213 0.415892 102.842 0.0949003C104.438 -0.133497 106.065 0.0520439 107.567 0.633416C108.174 0.876365 108.722 1.24569 109.174 1.71648C109.239 1.78279 109.293 1.829 109.223 1.93952C108.588 2.91005 107.96 3.88862 107.344 4.83906C107.031 4.63552 106.705 4.45228 106.369 4.2905C105.753 4.03766 105.071 3.99317 104.427 4.16391C103.474 4.402 102.785 5.22137 102.719 6.19339C102.658 6.75401 102.668 7.32065 102.646 7.90539H106.691Z" fill="white"/>
<path d="M84.4677 12.4282H81.1836V7.91519H84.4576V7.61768C84.4301 6.74341 84.485 5.86849 84.6214 5.00438C85.1078 2.4074 87.2283 0.421491 89.8651 0.093376C91.4549 -0.132496 93.0764 0.0530614 94.5729 0.632118C95.2347 0.894788 95.8255 1.30786 96.2979 1.83826L94.3343 4.88175C93.9666 4.52613 93.5077 4.27785 93.0077 4.1641C92.4815 4.02561 91.9282 4.02561 91.402 4.1641C90.6767 4.35537 90.1009 4.90342 89.8772 5.61549C89.6245 6.36128 89.6993 7.12115 89.6892 7.90313H93.7033V12.4081H89.6932V27.5692H84.4677V12.4282Z" fill="white"/>
<path d="M13.8119 0C14.1406 0.0661137 14.4633 0.158912 14.7768 0.277462C18.3071 1.90764 21.8334 3.54513 25.3556 5.18994L27.1128 6.00437C27.2127 6.04754 27.3098 6.09687 27.4036 6.15208C27.7145 6.35169 27.7165 6.64113 27.4036 6.81679C27.0907 6.99245 26.7698 7.12619 26.4468 7.2759C22.5448 9.08972 18.6427 10.9022 14.7407 12.7134C14.1597 12.993 13.4822 12.993 12.9013 12.7134C8.74784 10.7891 4.59839 8.8595 0.452965 6.92458C0.354902 6.88155 0.261484 6.82871 0.174152 6.76689C0.0670862 6.71107 0 6.60073 0 6.48044C0 6.36016 0.0670862 6.24982 0.174152 6.194C0.260856 6.1301 0.354355 6.07588 0.452965 6.03231C4.58235 4.10937 8.71574 2.18976 12.8531 0.27347C13.1647 0.156257 13.4853 0.0647912 13.8119 0Z" fill="white"/>
<path d="M129.118 27.5609V8.2453H134.168V10.8015L134.215 10.8311C134.979 9.9349 135.906 9.19211 136.948 8.64236C137.987 8.06329 139.156 7.75743 140.346 7.75342V12.692C140.03 12.6643 139.72 12.6268 139.407 12.6129C137.702 12.5205 136.027 13.0862 134.727 14.1933L134.666 14.2446C134.332 14.5147 134.148 14.9281 134.17 15.3568C134.192 19.3373 134.182 23.3197 134.182 27.3041V27.5688L129.118 27.5609Z" fill="white"/>
<path d="M3.60596 19.8154C3.93343 19.8882 4.25518 19.9847 4.56867 20.104C7.34046 21.3867 10.1042 22.6833 12.872 23.97C13.4638 24.2582 14.1555 24.2582 14.7473 23.97C17.5552 22.6653 20.353 21.3486 23.171 20.0499C23.7364 19.7849 24.3905 19.7849 24.956 20.0499C25.7141 20.3846 26.4622 20.7473 27.2123 21.1001C27.4129 21.1923 27.6395 21.2724 27.6375 21.539C27.6355 21.8055 27.4049 21.8857 27.2103 21.9779L18.2471 26.1665C17.0939 26.7036 15.9447 27.2467 14.7914 27.7798C14.1875 28.0735 13.482 28.0735 12.878 27.7798C10.0982 26.4931 7.3184 25.1985 4.53859 23.8958L0.52731 22.022C0.383656 21.9605 0.248776 21.8803 0.126182 21.7835C0.0472376 21.7297 0 21.6404 0 21.545C0 21.4495 0.0472376 21.3602 0.126182 21.3065C0.229543 21.2188 0.345063 21.1466 0.469146 21.092C1.19519 20.7493 1.91722 20.3946 2.65329 20.09C2.96746 19.9785 3.28917 19.8894 3.61599 19.8234L3.60596 19.8154Z" fill="white"/>
<path d="M13.8091 20.6372C13.462 20.6517 13.1169 20.5778 12.8062 20.4225C9.9604 19.0853 7.11329 17.754 4.26485 16.4288L0.41945 14.6235C0.218855 14.5312 -0.00781672 14.451 0.000207059 14.1842C0.00823084 13.9174 0.232897 13.8392 0.429479 13.7469C1.13758 13.4139 1.84768 13.085 2.55578 12.744C3.1851 12.4251 3.92739 12.4191 4.56173 12.7279L12.9025 16.6174C13.4767 16.8936 14.1455 16.8936 14.7198 16.6174C17.5141 15.3175 20.3164 14.0097 23.1167 12.7038C23.7046 12.4223 24.3884 12.4223 24.9762 12.7038C25.7445 13.0509 26.5128 13.4139 27.271 13.773C27.3427 13.807 27.41 13.8495 27.4716 13.8994C27.5739 13.9553 27.6375 14.0626 27.6375 14.1792C27.6375 14.2958 27.5739 14.4031 27.4716 14.459C27.312 14.5621 27.1435 14.6507 26.9681 14.7238L16.2243 19.7385C15.7429 19.9632 15.2695 20.2059 14.78 20.4065C14.4693 20.5151 14.1524 20.6055 13.8312 20.6773L13.8091 20.6372Z" fill="white"/>
</svg>
