<svg width="177" height="28" viewBox="0 0 177 28" fill="none" xmlns="http://www.w3.org/2000/svg">
<g clip-path="url(#clip0)">
<path d="M24.8716 17.3749C22.122 22.1787 16.5394 26.331 13.8065 27.9594C10.3409 25.347 7.37368 22.1582 5.04102 18.5392L5.45762 10.5032C8.03667 14.8487 11.0421 18.9389 14.4314 22.716C16.3811 21.8041 20.8722 19.5163 24.8716 17.3749Z" fill="white"/>
<path d="M3.75781 17.4806C0.91654 12.742 0.041661 5.9435 0 2.82515C3.91541 1.21347 8.10164 0.321918 12.3483 0.195312L19.2223 4.60822C14.2245 4.57042 9.23574 5.02872 4.33273 5.97606C4.16609 8.08482 3.90779 13.0351 3.75781 17.4724" fill="white"/>
<path d="M14.1064 0.00815354C19.7223 -0.154684 26.2464 2.36116 29.1044 3.82671C28.5768 7.96917 27.2898 11.9849 25.3049 15.6813L18.0392 19.4592C20.516 15.1671 22.564 10.6519 24.1551 5.97617C22.3386 4.82816 18.0226 2.23089 14.1064 -0.0244141" fill="white"/>
<path d="M43.2606 16.0559V13.2062H51.4428V20.4525C49.4647 22.9005 46.4179 24.2894 43.2273 24.1978C37.3948 24.1978 32.9204 20.2653 32.9204 14.4275C32.9178 9.03154 37.3922 4.65515 42.9143 4.65259C43.0186 4.65254 43.123 4.65409 43.2273 4.65723C46.2583 4.63927 49.1393 5.94389 51.0845 8.21524L48.7015 10.2426C47.3573 8.62588 45.3582 7.66256 43.2273 7.6046C39.5459 7.60075 36.5584 10.5138 36.5544 14.1112C36.5543 14.2139 36.5567 14.3167 36.5616 14.4194C36.5616 18.5392 39.2945 21.2341 43.2273 21.2341C45.0068 21.2396 46.7221 20.5849 48.0266 19.4022V16.0559H43.2606Z" fill="white"/>
<path d="M67.5071 16.9188C67.5096 20.8893 64.2177 24.1101 60.1544 24.1125C56.091 24.115 52.795 20.8982 52.7925 16.9277C52.7925 16.9247 52.7925 16.9218 52.7925 16.9188C52.7925 12.9483 56.0865 9.72949 60.1498 9.72949C64.2131 9.72949 67.5071 12.9483 67.5071 16.9188ZM60.1498 12.5303C57.8668 12.5303 56.2003 14.5006 56.2003 16.9188C56.2003 19.3369 57.8668 21.3398 60.1748 21.3398C62.4828 21.3398 64.1409 19.3695 64.1409 16.9188C64.1409 14.4681 62.4661 12.5303 60.1498 12.5303Z" fill="white"/>
<path d="M78.889 16.0559V13.2062H87.0796V20.4525C85.1006 22.8994 82.0544 24.2881 78.864 24.1978C73.0315 24.1978 68.5571 20.2653 68.5571 14.4275C68.5545 9.03154 73.0289 4.65515 78.551 4.65259C78.6554 4.65254 78.7597 4.65409 78.864 4.65723C81.8942 4.64269 84.7739 5.94668 86.7213 8.21524L84.3216 10.21C82.9748 8.60973 80.9837 7.65918 78.864 7.6046C75.1826 7.60075 72.1951 10.5138 72.1912 14.1112C72.191 14.2139 72.1934 14.3167 72.1983 14.4194C72.1983 18.5392 74.9312 21.2341 78.864 21.2341C80.6515 21.2537 82.3795 20.6074 83.6967 19.4266V16.0559H78.889Z" fill="white"/>
<path d="M98.6944 23.8884L98.5278 21.8366C97.5195 23.3165 95.8228 24.208 94.0034 24.214C92.4818 24.2638 91.027 23.6015 90.0873 22.431C89.0458 21.0876 88.8208 19.2556 88.8208 17.2364V9.99829H92.1537V16.9759C92.0568 18.1086 92.2486 19.2471 92.7119 20.2897C93.1639 21.0128 93.9984 21.4205 94.8616 21.34C96.3255 21.25 97.6473 20.4531 98.3861 19.2149V9.99829H101.719V23.8884H98.6944Z" fill="white"/>
<path d="M112.392 23.8883L112.226 22.5937C111.217 23.7193 109.729 24.3213 108.201 24.2221C105.552 24.2221 103.102 22.7891 103.102 19.8825C103.102 16.4303 106.352 15.3556 109.36 15.3556C110.259 15.3636 111.156 15.4645 112.034 15.6568V15.3311C112.034 13.4422 111.201 12.3105 109.001 12.3105C107.463 12.3722 105.961 12.7879 104.619 13.5236L103.71 11.0811C105.55 10.2059 107.564 9.73617 109.609 9.70508C113.634 9.70508 115.367 11.9197 115.367 15.5265V23.8883H112.392ZM112.026 17.7249C111.311 17.5565 110.578 17.4664 109.843 17.4562C108.276 17.4562 106.368 17.9447 106.368 19.7522C106.368 21.1526 107.501 21.7714 108.801 21.7714C110.013 21.7164 111.161 21.2264 112.026 20.3954V17.7249Z" fill="white"/>
<path d="M120.358 11.9686C121.191 10.617 122.341 9.67254 123.799 9.67254C124.364 9.66797 124.927 9.7504 125.466 9.9168L124.724 12.9619C124.309 12.7471 123.843 12.6431 123.374 12.6606C122.117 12.6934 120.987 13.4144 120.45 14.5251V23.8883H117.117V10.0471H120.175L120.358 11.9686Z" fill="white"/>
<path d="M139.289 23.8883H136.231L136.064 22.1052C135.037 23.4835 133.376 24.2735 131.632 24.214C127.716 24.214 124.816 20.9572 124.816 16.8863C124.816 13.084 127.599 9.6644 131.682 9.6644C133.282 9.66125 134.816 10.2929 135.931 11.4149V3.66382H139.264L139.289 23.8883ZM135.956 14.2971C135.098 13.1926 133.759 12.5447 132.34 12.5466C129.557 12.5466 128.232 14.8589 128.232 16.9921C128.232 19.2556 129.782 21.3562 132.29 21.3562C133.829 21.3631 135.243 20.5308 135.956 19.1986V14.2971Z" fill="white"/>
<path d="M141.422 7.73477V4.6897H144.755V7.73477H141.422ZM141.422 23.872V10.0308H144.755V23.8883L141.422 23.872Z" fill="white"/>
<path d="M155.687 23.8883L155.52 22.5937C154.513 23.7214 153.024 24.3239 151.496 24.2221C148.854 24.2221 146.396 22.7891 146.396 19.8825C146.396 16.4303 149.654 15.3556 152.654 15.3556C153.554 15.3627 154.451 15.4637 155.329 15.6568V15.3311C155.329 13.4422 154.495 12.3105 152.296 12.3105C150.758 12.3734 149.256 12.789 147.913 13.5236L147.005 11.0811C148.845 10.2069 150.858 9.73723 152.904 9.70508C156.928 9.70508 158.67 11.9197 158.67 15.5265V23.8883H155.687ZM155.354 17.7249C154.641 17.556 153.912 17.4659 153.179 17.4562C151.604 17.4562 149.704 17.9447 149.704 19.7522C149.704 21.1526 150.838 21.7714 152.129 21.7714C153.341 21.7164 154.489 21.2264 155.354 20.3954V17.7249Z" fill="white"/>
<path d="M163.452 9.99822L163.619 12.0418C164.626 10.5653 166.319 9.67655 168.135 9.67254C169.657 9.62275 171.111 10.2851 172.051 11.4556C173.101 12.799 173.318 14.631 173.318 16.6502V23.8883H169.985V16.8944C170.084 15.7624 169.895 14.6239 169.435 13.5807C168.98 12.8605 168.148 12.4537 167.285 12.5303C165.819 12.619 164.494 13.4159 163.752 14.6554V23.8883H160.419V10.0471L163.452 9.99822Z" fill="white"/>
<path d="M175.098 9.69377C174.136 9.69377 173.353 8.92862 173.353 7.98852C173.353 7.04841 174.136 6.28369 175.098 6.28369C176.059 6.28369 176.842 7.04841 176.842 7.98852C176.842 8.92862 176.059 9.69377 175.098 9.69377ZM175.098 6.50378C174.26 6.50378 173.578 7.16963 173.578 7.98852C173.578 8.8074 174.26 9.47368 175.098 9.47368C175.935 9.47368 176.617 8.8074 176.617 7.98852C176.617 7.16963 175.935 6.50378 175.098 6.50378Z" fill="white"/>
<path d="M175.359 8.06039C175.464 8.01541 175.554 7.94192 175.617 7.84869C175.679 7.75377 175.711 7.64345 175.709 7.53114C175.721 7.36646 175.657 7.2052 175.534 7.0915C175.38 6.98928 175.195 6.94058 175.009 6.9531H174.518V8.96413H174.743V8.14994H175.142L175.634 8.96413H175.917L175.359 8.06039ZM175.009 7.95454H174.743V7.1485H175.001C175.309 7.1485 175.467 7.27875 175.467 7.53929C175.477 7.65583 175.431 7.77027 175.342 7.84869C175.249 7.92418 175.13 7.96204 175.009 7.95454Z" fill="white"/>
</g>
<defs>
<clipPath id="clip0">
<rect width="176.842" height="28" fill="white"/>
</clipPath>
</defs>
</svg>
