<svg width="233" height="65" viewBox="0 0 233 65" fill="none" xmlns="http://www.w3.org/2000/svg">
<rect y="0.0549316" width="232.727" height="64" rx="2" fill="white"/>
<path d="M71.0152 22.5408C75.4045 22.5408 78.8146 25.5526 79.2886 29.9238L74.9893 30.6319C74.5429 28.0044 73.1207 26.5278 71.01 26.5278C68.0134 26.5278 66.2348 29.0674 66.2348 33.3198C66.2348 37.5721 68.0134 40.1118 71.01 40.1118C73.2332 40.1118 74.6571 38.5473 75.0429 35.682L79.3423 36.4212C78.8094 41.0577 75.5464 44.0988 71.01 44.0988C65.4632 44.0988 61.8403 39.8465 61.8403 33.3198C61.8403 26.7931 65.4684 22.5408 71.0152 22.5408Z" fill="#300D4F"/>
<path d="M83.2607 22.9834H87.6501V31.0814H94.382V22.9834H98.7713V43.6592H94.382V35.0615H87.6501V43.6558H83.2607V22.9834Z" fill="#300D4F"/>
<path fill-rule="evenodd" clip-rule="evenodd" d="M107.488 40.4373H115.436L116.533 43.6558H120.893L113.478 22.98H109.445L102.031 43.6558H106.391L107.488 40.4373ZM111.491 28.978L114.1 36.5987H108.823L111.432 28.978H111.491Z" fill="#300D4F"/>
<path d="M124.123 22.9834H128.621L135.654 36.1246H135.713V22.9834H140.102V43.6592H135.599L128.571 30.5129H128.512V43.6558H124.123V22.9834Z" fill="#300D4F"/>
<path d="M145.531 22.9834H150.04L157.068 36.1246H157.127V22.9834H161.516V43.6592H157.009L149.981 30.5129H149.921V43.6558H145.531V22.9834Z" fill="#300D4F"/>
<path d="M166.942 22.9834H180.316V26.9997H171.331V31.1934H179.515V35.0322H171.331V39.6395H180.345V43.6558H166.942V22.9834Z" fill="#300D4F"/>
<path d="M184.911 22.9834H189.3V39.6395H198.079V43.6558H184.911V22.9834Z" fill="#300D4F"/>
<path d="M204.987 35.918C205.551 38.9901 206.762 40.1772 209.531 40.1772C211.577 40.1772 212.733 39.4381 212.733 38.1389C212.733 36.6916 211.755 35.9835 208.285 34.8015C203.451 33.1767 201.643 31.4348 201.643 28.392C201.643 24.946 204.549 22.5459 208.671 22.5459C212.733 22.5459 215.906 24.996 216.56 28.6298L212.288 29.5447C211.726 27.4478 210.569 26.4726 208.671 26.4726C207.039 26.4726 205.972 27.2117 205.972 28.3679C205.972 29.431 206.861 30.0219 209.951 31.0557C212.531 31.9413 214.399 32.9166 215.498 34.0089C216.596 35.1013 217.127 36.4607 217.127 38.1441C217.127 41.7176 214.013 44.1091 209.477 44.1091C204.524 44.1091 201.44 41.5694 200.698 36.845L204.987 35.918Z" fill="#300D4F"/>
<path d="M36.5387 17.7784L33.5629 16.0743C33.5179 16.0485 33.4625 16.0485 33.4176 16.0743L30.4054 17.8059C30.3605 17.8318 30.3051 17.8318 30.2601 17.8059L27.2479 16.0743C27.203 16.0485 27.1476 16.0485 27.1026 16.0743L24.1268 17.7784C24.1041 17.7912 24.0901 17.8152 24.0901 17.8412C24.0901 17.8673 24.1041 17.8913 24.1268 17.9041L30.2895 21.4587C30.3122 21.4706 30.3394 21.4706 30.3622 21.4587L36.5318 17.911C36.559 17.901 36.5775 17.8758 36.579 17.847C36.5805 17.8181 36.5647 17.7912 36.5387 17.7784Z" fill="#6A52FF"/>
<path d="M42.8538 21.4161L39.878 19.7069C39.833 19.681 39.7776 19.681 39.7327 19.7069L30.4056 25.0688C30.3606 25.0947 30.3052 25.0947 30.2602 25.0688L20.9331 19.7069C20.8882 19.681 20.8328 19.681 20.7878 19.7069L17.812 21.4161C17.7893 21.429 17.7753 21.453 17.7753 21.479C17.7753 21.505 17.7893 21.529 17.812 21.5419L30.2896 28.7198C30.3119 28.7335 30.34 28.7335 30.3623 28.7198L42.8469 21.5419C42.8703 21.5303 42.8857 21.507 42.8872 21.481C42.8886 21.455 42.8758 21.4302 42.8538 21.4161Z" fill="#6A52FF"/>
<path d="M33.4902 30.6406V34.0624C33.4905 34.0882 33.5044 34.1118 33.5268 34.1246C33.5493 34.1374 33.5768 34.1373 33.5992 34.1244L46.0838 26.9465C46.1063 26.9339 46.1203 26.9102 46.1201 26.8845V23.547C46.1203 23.4952 46.0927 23.4473 46.0477 23.4214C46.0027 23.3954 45.9472 23.3954 45.9021 23.4212L33.5629 30.5148C33.5178 30.5407 33.4901 30.5887 33.4902 30.6406Z" fill="#6A52FF"/>
<path d="M33.5992 41.3835L46.0838 34.2055C46.1061 34.1919 46.1198 34.1678 46.1201 34.1417V30.8078C46.1203 30.756 46.0927 30.7081 46.0477 30.6821C46.0027 30.6561 45.9472 30.6561 45.9021 30.682L33.5629 37.7773C33.5175 37.8029 33.4897 37.8511 33.4902 37.903V41.3232C33.4911 41.3486 33.5052 41.3717 33.5276 41.3841C33.5499 41.3964 33.5771 41.3962 33.5992 41.3835Z" fill="#6A52FF"/>
<path d="M30.3329 46.6437V32.4566C30.3334 32.4046 30.3056 32.3565 30.2602 32.3308L27.3934 30.6819C27.3484 30.656 27.2929 30.6561 27.2479 30.682C27.2029 30.708 27.1753 30.7559 27.1754 30.8077V44.8294C27.1756 44.8811 27.148 44.9291 27.103 44.955C27.058 44.981 27.0025 44.981 26.9574 44.9551L24.0906 43.3062C24.0455 43.2803 24.0178 43.2323 24.018 43.1805V28.8245C24.0181 28.7727 23.9904 28.7247 23.9453 28.6988L21.0785 27.0516C21.0334 27.0257 20.978 27.0257 20.933 27.0517C20.888 27.0777 20.8603 27.1256 20.8605 27.1774V41.1973C20.8606 41.2491 20.833 41.297 20.788 41.323C20.743 41.3489 20.6875 41.349 20.6425 41.3231L17.7757 39.6759C17.7306 39.65 17.7029 39.602 17.703 39.5501V25.1873C17.7032 25.1354 17.6754 25.0875 17.6303 25.0615L14.7635 23.4212C14.7185 23.3954 14.663 23.3954 14.618 23.4214C14.573 23.4473 14.5454 23.4952 14.5455 23.547V41.4075C14.5454 41.4332 14.5593 41.457 14.5819 41.4695L30.2897 50.5049C30.3119 50.5186 30.34 50.5186 30.3623 50.5049L46.077 41.4695C46.0996 41.457 46.1135 41.4332 46.1134 41.4075V38.0701C46.1135 38.0183 46.0859 37.9704 46.0409 37.9444C45.9959 37.9185 45.9404 37.9184 45.8954 37.9443L30.5509 46.7694C30.5059 46.7953 30.4504 46.7953 30.4054 46.7693C30.3604 46.7434 30.3328 46.6955 30.3329 46.6437Z" fill="#6A52FF"/>
</svg>
