<svg width="96" height="96" viewBox="0 0 96 96" fill="none" xmlns="http://www.w3.org/2000/svg">
<g clip-path="url(#clip0)">
<path d="M39.4353 65.6555C39.4353 65.6555 36.9164 67.0824 41.2279 67.5652C46.4511 68.1456 49.1206 68.0624 54.8767 67.0012C54.8767 67.0012 56.3901 67.9255 58.5035 68.7261C45.6 74.113 29.3002 68.4141 39.4353 65.6555Z" fill="#300D4F"/>
<path d="M37.8584 58.6261C37.8584 58.6261 35.0332 60.6632 39.3479 61.0979C44.9275 61.6586 49.3339 61.7045 56.9586 60.2743C56.9586 60.2743 58.0132 61.3158 59.6715 61.8853C44.0703 66.3292 26.6934 62.2357 37.8584 58.6261Z" fill="#300D4F"/>
<path d="M51.1493 46.701C54.3286 50.2667 50.3138 53.4755 50.3138 53.4755C50.3138 53.4755 58.387 49.4157 54.6794 44.3321C51.2166 39.5913 48.561 37.2358 62.9369 29.1141C62.9369 29.1141 40.3716 34.6039 51.1493 46.701Z" fill="#300D4F"/>
<path d="M68.2169 70.8558C68.2169 70.8558 70.0809 72.3519 66.164 73.5093C58.716 75.7072 35.1643 76.3709 28.6217 73.5969C26.2698 72.6003 30.6803 71.2171 32.0676 70.9269C33.5145 70.6213 34.3413 70.6782 34.3413 70.6782C31.7258 68.8834 17.4356 74.2024 27.0826 75.7257C53.3915 79.8818 75.041 73.8542 68.2169 70.8558Z" fill="#300D4F"/>
<path d="M40.6444 51.3422C40.6444 51.3422 28.6645 54.114 36.402 55.1205C39.6691 55.5465 46.1817 55.4502 52.2482 54.9551C57.206 54.5477 62.1843 53.6815 62.1843 53.6815C62.1843 53.6815 60.4361 54.4108 59.1713 55.252C47.0059 58.3687 23.5047 56.9188 30.2704 53.7308C35.9921 51.0366 40.6444 51.3422 40.6444 51.3422Z" fill="#300D4F"/>
<path d="M62.1387 63.0436C74.5054 56.7838 68.7876 50.7682 64.7965 51.5787C63.8184 51.777 63.3822 51.9488 63.3822 51.9488C63.3822 51.9488 63.7453 51.3948 64.4389 51.1548C72.3343 48.4509 78.4065 59.1297 61.8901 63.3591C61.8901 63.3592 62.0815 63.1926 62.1387 63.0436Z" fill="#300D4F"/>
<path d="M54.6771 16C54.6771 16 61.526 22.6737 48.1813 32.936C37.4802 41.1683 45.7411 45.862 48.1769 51.2248C41.9304 45.735 37.3464 40.9023 40.4218 36.4044C44.9356 29.802 57.4405 26.6009 54.6771 16V16Z" fill="#300D4F"/>
<path d="M41.8618 80.0065C53.7323 80.7466 71.9607 79.5958 72.3924 74.1245C72.3924 74.1245 71.5626 76.1986 62.5821 77.8458C52.4505 79.7032 39.9545 79.4863 32.543 78.296C32.5432 78.2958 34.0602 79.5191 41.8618 80.0065Z" fill="#300D4F"/>
</g>
<defs>
<clipPath id="clip0">
<rect x="23" y="16" width="49.7096" height="64.2082" fill="white"/>
</clipPath>
</defs>
</svg>
