<svg width="65" height="65" viewBox="0 0 65 65" fill="none" xmlns="http://www.w3.org/2000/svg">
<path d="M10.498 24.1166C10.498 24.1166 17.6146 10.1208 32.2034 10.9511C46.7923 11.7813 54.5018 23.7608 54.5018 23.7608" stroke="#8731D2" stroke-width="4" stroke-miterlimit="10" stroke-linecap="round" stroke-linejoin="round"/>
<path d="M14.5309 51.515C14.5309 51.515 11.5657 41.7891 12.6332 35.8586C13.7007 29.9282 19.2753 17.9487 31.8478 17.9487C44.3254 17.9487 51.4182 28.7421 52.3671 36.8075C53.3159 44.8729 48.3344 47.0078 47.1483 47.1264C45.9622 47.245 39.9132 47.1264 39.2015 41.6704C38.4899 36.2145 37.0666 32.5376 32.4408 32.7748C27.8151 33.012 25.4429 35.74 25.7988 40.603C26.1546 45.4659 27.8151 56.0221 39.9132 60.1734" stroke="#8731D2" stroke-width="4" stroke-miterlimit="10" stroke-linecap="round" stroke-linejoin="round"/>
<path d="M27.5779 60.3751C27.5779 60.3751 18.2078 50.4475 18.9194 40.01C19.6311 29.5724 25.6801 25.0653 32.3222 25.1839C38.9643 25.3025 45.6064 30.2841 45.9622 40.4844" stroke="#8731D2" stroke-width="4" stroke-miterlimit="10" stroke-linecap="round" stroke-linejoin="round"/>
<path d="M49.2592 54.3384C49.2592 54.3384 33.1403 59.0116 32.3101 39.2988" stroke="#8731D2" stroke-width="4" stroke-miterlimit="10" stroke-linecap="round" stroke-linejoin="round"/>
<path d="M16.0486 8.61066C16.0486 8.61066 30.9933 -0.42148 46.8868 8.70778" stroke="#8731D2" stroke-width="4" stroke-miterlimit="10" stroke-linecap="round" stroke-linejoin="round"/>
</svg>
