<svg width="96" height="96" viewBox="0 0 96 96" fill="none" xmlns="http://www.w3.org/2000/svg">
<path fill-rule="evenodd" clip-rule="evenodd" d="M48.0505 22.1243C47.3466 22.1243 46.6623 22.2672 46.0569 22.6038L26.8946 33.4723C25.6545 34.1735 24.901 35.499 24.901 36.9086V58.6058C24.901 60.0148 25.6545 61.3386 26.8946 62.042L31.8988 64.8791C34.33 66.056 35.2268 66.0378 36.3333 66.0378C39.9331 66.0378 41.9885 63.8926 41.9885 60.1641V38.7467C41.9885 38.4439 41.7216 38.2272 41.419 38.2272H39.0185C38.711 38.2272 38.4489 38.4439 38.4489 38.7467V60.1641C38.4489 61.8168 36.6963 63.4787 33.8516 62.082L28.644 59.0852C28.4601 58.9869 28.3185 58.8131 28.3185 58.6058V36.9086C28.3185 36.7027 28.4585 36.4935 28.644 36.3893L47.7657 25.5607C47.9447 25.4596 48.1578 25.4596 48.3352 25.5607L67.4569 36.3893C67.6391 36.4967 67.7823 36.6964 67.7823 36.9086V58.6058C67.7823 58.8131 67.6765 59.0254 67.4976 59.1253L48.3352 69.9538C48.1709 70.0498 47.9447 70.0498 47.7657 69.9538L42.8429 67.0769C42.6964 66.9925 42.4962 66.9989 42.3546 67.0769C40.9957 67.8334 40.7403 67.9214 39.4661 68.3555C39.152 68.463 38.6751 68.6301 39.6288 69.1546L46.0569 72.8707C46.6688 73.2185 47.3506 73.3901 48.0505 73.3901C48.76 73.3901 49.4322 73.2185 50.0441 72.8707L69.2064 62.042C70.4464 61.3337 71.1999 60.0148 71.1999 58.6058V36.9086C71.1999 35.499 70.4464 34.1765 69.2064 33.4723L50.0441 22.6038C49.4435 22.2672 48.7543 22.1243 48.0505 22.1243ZM53.1767 37.6282C47.7201 37.6282 44.4702 39.9089 44.4702 43.7018C44.4702 47.8163 47.6956 48.9467 52.9325 49.4557C59.198 50.0581 59.6862 50.9615 59.6862 52.1728C59.6862 54.2737 57.9807 55.1696 53.9497 55.1696C48.8853 55.1696 47.7722 53.9279 47.3995 51.4535C47.3556 51.1883 47.1473 50.9741 46.8706 50.9741H44.3889C44.0829 50.9741 43.8193 51.2324 43.8193 51.5334C43.8193 54.7006 45.5736 58.4462 53.9497 58.4462C60.0133 58.4462 63.5105 56.1086 63.5105 52.013C63.5105 47.9528 60.6853 46.863 54.8041 46.0992C48.8608 45.3269 48.2945 44.9489 48.2945 43.582C48.2945 42.4536 48.7747 40.9446 53.1767 40.9446C57.1084 40.9446 58.5617 41.7773 59.1572 44.381C59.2093 44.6258 59.4291 44.8206 59.6862 44.8206H62.168C62.3209 44.8206 62.469 44.7285 62.5748 44.6207C62.6789 44.5057 62.7522 44.3759 62.7375 44.2213C62.3535 39.7372 59.3086 37.6282 53.1767 37.6282Z" fill="#300D4F"/>
</svg>
